<?xml version="1.0" standalone="no"?>
<!DOCTYPE svg PUBLIC "-//W3C//DTD SVG 1.1//EN" "http://www.w3.org/Graphics/SVG/1.1/DTD/svg11.dtd" >
<svg xmlns="http://www.w3.org/2000/svg">
<metadata></metadata>
<defs>
<font id="yanone_kaffeesatzbold" horiz-adv-x="821" >
<font-face units-per-em="2048" ascent="1638" descent="-410" />
<missing-glyph horiz-adv-x="288" />
<glyph unicode="&#xfb01;" horiz-adv-x="837" d="M20 836q0 134 7.5 161t48.5 27h67v117q0 92 23 160t59.5 107.5t90.5 63.5t106 31.5t117 7.5q266 0 266 -129q0 -67 -23 -131q-43 26 -107 42t-126 16q-92 0 -135 -31.5t-43 -128.5v-125h108q0 -71 -1 -104.5t-6 -54.5t-12.5 -25t-23.5 -4h-65v-795q0 -5 -1 -11.5 t-11.5 -18t-28.5 -11.5h-187v836h-123zM539 0v924q0 71 40 85.5t191 14.5v-983q0 -31 -29.5 -36t-201.5 -5z" />
<glyph unicode="&#xfb02;" horiz-adv-x="858" d="M20 836q0 134 7.5 161t48.5 27h67v117q0 76 15 137t42.5 100t60 66.5t73 41.5t75.5 19.5t74 5.5q85 0 166 -24t139 -62v-1384v-4.5t-2 -9.5t-6 -12.5t-12.5 -10t-19.5 -4.5h-187v1319q-38 10 -61 10q-54 0 -91.5 -32t-37.5 -111v-162h121q0 -71 -1 -104.5t-6 -54.5 t-12.5 -25t-23.5 -4h-78v-795q0 -5 -1 -11.5t-11.5 -18t-28.5 -11.5h-187v836h-123z" />
<glyph horiz-adv-x="0" />
<glyph horiz-adv-x="682" />
<glyph unicode="&#xd;" horiz-adv-x="288" />
<glyph unicode=" "  horiz-adv-x="288" />
<glyph unicode="&#x09;" horiz-adv-x="288" />
<glyph unicode="&#xa0;" horiz-adv-x="288" />
<glyph unicode="!" horiz-adv-x="413" d="M55 1378q-1 46 52.5 57t267.5 11l-51 -848q-2 -26 -6 -43t-16.5 -29.5t-25.5 -19t-43 -10t-57.5 -4t-79.5 -0.5zM61 129q0 61 39.5 104t106.5 43q78 0 110.5 -38t32.5 -109q0 -62 -38 -103.5t-105 -41.5q-81 0 -113.5 36t-32.5 109z" />
<glyph unicode="&#x22;" horiz-adv-x="589" d="M51 1563q0 33 6 36q23 13 90 13q63 0 121 -8q-3 -97 -21.5 -245.5t-31.5 -158.5l-123 -6q-41 269 -41 369zM322 1563q0 33 6 36q23 13 90 13q63 0 121 -8q-3 -96 -22 -245t-32 -159l-123 -6q-40 269 -40 369z" />
<glyph unicode="#" d="M31 369q0 111 6 143.5t35 32.5h63l8 172h-112q0 111 6 143.5t35 32.5h82l6 104q1 28 40.5 34.5t155.5 6.5l-8 -145h154l6 104q1 28 41 34.5t156 6.5l-9 -145h92q0 -113 -5.5 -144.5t-34.5 -31.5h-60l-10 -172h110q0 -113 -5.5 -144.5t-34.5 -31.5h-78l-6 -109 q-1 -28 -41.5 -34.5t-155.5 -6.5l6 150h-151l-7 -109q-1 -28 -41 -34.5t-155 -6.5l8 150h-96zM330 545h153l9 172h-152z" />
<glyph unicode="$" d="M74 979q0 117 64 187t186 89v168q0 52 48.5 70t157.5 18v-251q70 -6 117.5 -19.5t65.5 -28t18 -28.5q0 -32 -13 -76.5t-42 -77.5q-20 12 -73.5 23.5t-108.5 11.5q-84 0 -126 -17t-42 -63q0 -41 13.5 -69t55.5 -76l242 -262q94 -108 94 -248q0 -274 -242 -332v-166 q0 -52 -47.5 -68t-158.5 -16v238q-99 8 -153 36t-54 58q0 26 15 90.5t36 95.5q74 -57 211 -57q139 0 139 123q0 48 -17 81.5t-69 94.5l-229 252q-88 104 -88 219z" />
<glyph unicode="%" horiz-adv-x="1368" d="M53 1077q0 373 291 373q97 0 154 -31.5t87.5 -113t30.5 -224.5q0 -201 -71.5 -294t-216.5 -93q-74 0 -122 15t-84.5 56.5t-52.5 117.5t-16 194zM217 70l784 1382q14 -5 35 -13.5t55.5 -33.5t34.5 -49q0 -16 -192.5 -359t-385.5 -678l-192 -335q-16 5 -39 13t-61.5 31 t-38.5 42zM270 1077q0 -90 8.5 -136.5t22 -60.5t39.5 -14q19 0 32 13.5t23.5 62.5t10.5 135q0 127 -12.5 165t-51.5 38q-36 0 -54 -42t-18 -161zM752 365q0 372 290 372q97 0 154.5 -31.5t88 -112.5t30.5 -224q0 -201 -72 -294t-217 -93q-74 0 -122 15t-84 56.5t-52 117.5 t-16 194zM965 358q0 -89 8.5 -136t22.5 -61t40 -14q20 0 34 13.5t25 62.5t11 135q0 127 -13 165t-55 38q-36 0 -54.5 -42t-18.5 -161z" />
<glyph unicode="&#x26;" horiz-adv-x="1001" d="M31 346q0 121 62.5 221t160.5 166q-152 283 -152 430q0 130 84.5 206.5t257.5 76.5q142 0 230 -29t88 -78q0 -40 -15 -87.5t-42 -80.5q-58 43 -112 58.5t-120 15.5q-69 0 -99 -20t-30 -92q0 -79 87 -250.5t210 -347.5q2 31 2 88q0 146 -16 228.5t-49 162.5q66 18 253 18 q72 0 136 -6q6 -41 6 -78q0 -25 -2.5 -40.5t-10.5 -31.5t-27 -24t-48 -8h-45q15 -47 19.5 -90.5t4.5 -157.5q0 -162 -43 -295q106 -115 170 -141q-8 -71 -58 -125.5t-89 -54.5q-34 0 -139 114q-111 -114 -289 -114q-107 0 -184 28.5t-119.5 80t-62 115t-19.5 142.5zM266 342 q0 -69 35 -109t102 -40q101 0 158 73q-101 130 -209 303q-44 -41 -65 -94t-21 -133z" />
<glyph unicode="'" horiz-adv-x="319" d="M51 1563q0 33 6 36q23 13 90 13q63 0 121 -8q-3 -97 -21.5 -245.5t-31.5 -158.5l-123 -6q-41 269 -41 369z" />
<glyph unicode="(" horiz-adv-x="593" d="M121 651q0 143 15 273.5t39.5 227.5t55 180.5t61 139t59 95t48.5 57.5t29 18q56 0 83 -30t44 -113q-201 -301 -201 -852q0 -298 56.5 -533t144.5 -337q-17 -89 -42.5 -130.5t-80.5 -41.5q-9 0 -29.5 17t-49.5 56.5t-60 96t-62 143t-55.5 189.5t-39.5 245t-15 299z" />
<glyph unicode=")" horiz-adv-x="593" d="M39 -223q201 282 201 868q0 590 -201 854q17 83 44 113t83 30q9 0 28.5 -16.5t48.5 -54.5t59.5 -92t61 -136.5t55 -180t39.5 -231t15 -280.5q0 -145 -15 -279.5t-39.5 -236.5t-55 -191t-62 -150t-60 -104.5t-49 -64t-30.5 -20.5q-55 0 -80.5 41.5t-42.5 130.5z" />
<glyph unicode="*" horiz-adv-x="960" d="M23 1004q-3 82 34.5 132t81.5 50q7 0 23 -4l244 -176q3 -78 -46 -78q-6 0 -22 4zM115 631l250 227q25 21 43 21q24 0 57 -41l-160 -320q-18 -24 -41 -24q-36 0 -78.5 43t-70.5 94zM385 1360q-3 30 19.5 44.5t60.5 14.5q69 0 135 -30l-53 -306q-5 -26 -15 -37.5t-36 -11.5 q-23 0 -50 8zM504 834q0 27 67 53l242 -254q12 -15 12 -31q0 -38 -58.5 -72.5t-117.5 -42.5l-139 318q-6 18 -6 29zM557 985q0 21 33 41l287 178q28 -25 44.5 -66.5t16.5 -80.5q0 -67 -41 -78l-309 -57q-31 39 -31 63z" />
<glyph unicode="+" d="M51 479q0 117 6.5 157t34.5 40h221v219q0 28 39.5 34.5t155.5 6.5v-260h260q0 -117 -6.5 -157t-34.5 -40h-219v-219q0 -28 -40 -34.5t-155 -6.5v260h-262z" />
<glyph unicode="," horiz-adv-x="385" d="M59 139q0 55 37.5 93t93.5 38q70 0 108 -38t38 -109q0 -60 -23.5 -121.5t-55 -103.5t-62.5 -68.5t-48 -26.5q-71 0 -86 60q23 38 34 65.5t14 40t8 47.5q-58 35 -58 123z" />
<glyph unicode="-" horiz-adv-x="540" d="M61 479q0 117 6.5 157t34.5 40h377q0 -117 -6.5 -157t-34.5 -40h-377z" />
<glyph unicode="." horiz-adv-x="385" d="M47 131q0 61 40 104.5t106 43.5q79 0 111 -38.5t32 -109.5q0 -62 -38 -103.5t-105 -41.5q-81 0 -113.5 36t-32.5 109z" />
<glyph unicode="/" horiz-adv-x="751" d="M20 -41l459 1548q9 30 23.5 40t61.5 15t167 5l-459 -1555q-11 -38 -45 -45.5t-207 -7.5z" />
<glyph unicode="0" d="M41 606q0 313 88.5 468t278.5 155q193 0 281.5 -136.5t88.5 -410.5q0 -145 -10.5 -252.5t-36.5 -195t-68.5 -141.5t-107 -82.5t-152.5 -28.5t-152 28.5t-104 78.5t-64 130t-33 171.5t-9 215.5zM289 598q0 -243 23 -328.5t100 -85.5q66 0 96.5 113.5t30.5 384.5 q0 178 -25.5 263t-93.5 85q-78 0 -104.5 -106t-26.5 -326z" />
<glyph unicode="1" d="M39 150q0 37 58 50t204 13l18 784q-47 -2 -96 -8t-75 -11l-25 -5q-35 60 -35 139q0 33 163.5 75t252.5 42q44 0 59 -12l-24 -1004h114q28 0 59.5 2t48.5 4l17 2q0 -141 -7 -181t-42 -40h-684q-6 76 -6 150z" />
<glyph unicode="2" d="M41 63q0 55 9.5 88t43.5 93q71 125 219 315q66 85 98 129t60.5 104.5t28.5 108.5q0 53 -32.5 82t-88.5 29q-59 0 -140.5 -18.5t-129.5 -45.5q-29 63 -29 166q0 46 114 80.5t255 34.5q168 0 240.5 -72t72.5 -217q0 -48 -13 -97t-29.5 -87t-52 -92t-59.5 -87t-73 -96 q-138 -180 -191 -268h156q75 0 144.5 5.5t101.5 11.5l32 6q0 -150 -8 -193t-43 -43h-678q-8 25 -8 63z" />
<glyph unicode="3" d="M68 1114q0 48 99.5 81.5t256.5 33.5q145 0 215 -68t70 -180q0 -226 -199 -369q112 -13 179 -89.5t67 -213.5q0 -134 -36.5 -235t-101.5 -161t-147 -89t-180 -29q-211 0 -211 111q0 28 3.5 55.5t7 42t10.5 39t8 29.5q28 -28 78 -44t104 -16q109 0 163 76t54 209 q0 72 -45 117t-112 59.5t-156 11.5l-2 138q124 49 188.5 124.5t64.5 155.5q0 53 -20.5 81t-85.5 28q-60 0 -126.5 -18t-117.5 -46q-28 61 -28 166z" />
<glyph unicode="4" d="M33 428q0 37 77.5 211.5t175.5 352.5t144 214q47 37 98 37q77 0 125 -31v-790q30 0 61.5 2.5t47.5 5.5l16 2q10 -18 10 -65q0 -68 -18 -112t-55 -44h-62v-145q0 -49 -29 -57.5t-198 -8.5v211h-315q-78 78 -78 217zM227 422h199l31 508q-53 -64 -129 -236t-101 -272z" />
<glyph unicode="5" d="M57 -119q0 109 25 185q63 -60 174 -60q51 0 94.5 20.5t73.5 54.5t51 78t31 90t10 91q0 81 -10 128.5t-39.5 80.5t-80 45t-134.5 12q-92 0 -182 -22l63 645h627q0 -126 -20 -163.5t-93 -37.5q-44 0 -124.5 3t-138.5 6l-58 3l-25 -256q45 9 90 9q37 0 69 -3t71 -13.5 t70 -27.5t62 -47t51.5 -70.5t33 -100.5t12.5 -134q0 -279 -124.5 -440.5t-350.5 -161.5q-59 0 -105.5 9t-72 23t-38 28t-12.5 26z" />
<glyph unicode="6" d="M45 659q0 178 22.5 313.5t61.5 223.5t98 143.5t127 78t152 22.5q221 0 221 -82q0 -88 -22 -160q-85 29 -168 29q-133 0 -200.5 -100.5t-74.5 -333.5q42 57 98.5 83.5t143.5 26.5q130 0 204 -95.5t74 -301.5q0 -269 -98 -395.5t-287 -126.5q-49 0 -90 7t-73.5 23t-58 35.5 t-45 50.5t-33.5 62t-23.5 76.5t-15 87t-8.5 101t-4 110.5t-1 122zM264 569q-3 -97 5 -169.5t21.5 -112.5t35 -64.5t41 -31.5t43.5 -7q69 0 109 80.5t40 194.5q0 110 -32 172.5t-95 62.5q-88 0 -168 -98v-27z" />
<glyph unicode="7" d="M74 1229h737q-210 -471 -314.5 -809.5t-107.5 -607.5q-144 0 -188.5 12t-44.5 51q1 151 61 382.5t141 440t156 340.5q-175 -12 -379 -12q-61 0 -61 203z" />
<glyph unicode="8" d="M45 381q0 121 54 219t147 166q-93 76 -131 133q-56 75 -56 186q0 172 98 266.5t249 94.5q374 0 374 -332q0 -123 -52 -208.5t-144 -157.5q51 -48 92 -95q106 -123 106 -278q0 -76 -22.5 -144.5t-65 -123.5t-112 -88t-156.5 -33q-103 0 -179 31.5t-119 88t-63 125 t-20 150.5zM256 397q0 -93 44 -143.5t110 -50.5t107.5 46.5t41.5 131.5q0 44 -10 78.5t-20 50.5t-29 39q-32 36 -94 88q-72 -54 -111 -110.5t-39 -129.5zM289 1100q0 -71 45 -127q19 -24 102 -99q133 110 133 232q0 48 -36 87.5t-95 39.5q-67 0 -108 -33.5t-41 -99.5z" />
<glyph unicode="9" d="M37 735q0 264 98 388t287 124q76 0 128.5 -11.5t92.5 -43t64 -76.5t39.5 -123.5t22 -171t9.5 -231.5q-5 -414 -123 -608.5t-387 -194.5q-196 0 -196 88q0 78 20 150q79 -23 146 -23q70 0 124 22.5t88 59.5t57 93t34 113.5t16 131.5q-44 -56 -99.5 -81.5t-140.5 -25.5 q-125 0 -202.5 113t-77.5 307zM260 760q0 -110 32.5 -173t94.5 -63q100 0 174 97v12q0 238 -28 326t-107 88q-74 0 -120 -73t-46 -214z" />
<glyph unicode=":" horiz-adv-x="385" d="M49 131q0 61 40 104.5t106 43.5q79 0 111 -38.5t32 -109.5q0 -62 -38 -103.5t-105 -41.5q-81 0 -113.5 36t-32.5 109zM49 788q0 63 39.5 106.5t106.5 43.5q79 0 111 -38.5t32 -111.5q0 -62 -38 -103.5t-105 -41.5q-81 0 -113.5 36t-32.5 109z" />
<glyph unicode=";" horiz-adv-x="385" d="M41 788q0 63 38.5 106.5t104.5 43.5q79 0 112.5 -39t33.5 -111q0 -62 -39.5 -103.5t-106.5 -41.5q-81 0 -112 35.5t-31 109.5zM49 -137q7 12 13 22.5t10 18.5t8 17.5t6.5 14.5t5 14t3.5 12t2.5 13t2 12t2.5 14t2 15q-55 35 -55 123q0 55 36.5 93t92.5 38q70 0 108 -38 t38 -109q0 -60 -23.5 -121.5t-55 -103.5t-62.5 -68.5t-48 -26.5q-71 0 -86 60z" />
<glyph unicode="&#x3c;" horiz-adv-x="819" d="M68 524q0 87 71 123l529 254q36 -32 58 -73.5t24 -77.5q0 -48 -39 -64l-349 -170l392 -180q-3 -68 -35 -121t-68 -53q-20 0 -63 16l-484 215q-36 58 -36 131z" />
<glyph unicode="=" d="M51 276q0 115 6.5 155t34.5 40h676q0 -116 -6.5 -155.5t-34.5 -39.5h-676zM51 684q0 116 6.5 155.5t34.5 39.5h676q0 -115 -6.5 -155t-34.5 -40h-676z" />
<glyph unicode="&#x3e;" horiz-adv-x="819" d="M78 698q3 66 35 120t67 54q21 0 64 -16l483 -215q37 -63 37 -133q0 -85 -74 -121l-528 -256q-35 33 -56.5 74.5t-23.5 75.5q0 51 37 67l350 168z" />
<glyph unicode="?" horiz-adv-x="602" d="M27 1364q0 41 85.5 65.5t184.5 24.5q143 0 214 -77t71 -203q0 -66 -10.5 -121.5t-34.5 -104t-41.5 -76.5t-51.5 -75q-45 -62 -75 -115q-13 -26 -13 -51q0 -24 13 -78q10 -33 10 -57q-5 -14 -8 -19q-21 -26 -133 -26q-52 0 -72 4q-39 76 -39 166q0 61 27 114q36 72 94 162 q33 54 46 77t26.5 62t13.5 76q0 57 -30 85t-101 28q-41 0 -76 -10.5t-49 -21.5l-15 -11q-36 91 -36 182zM123 131q0 61 39.5 104.5t105.5 43.5q79 0 111.5 -38.5t32.5 -109.5q0 -62 -38.5 -103.5t-105.5 -41.5q-81 0 -113 36t-32 109z" />
<glyph unicode="@" horiz-adv-x="1474" d="M82 539q0 430 184 642t514 212q120 0 213 -19.5t170 -66t127 -120t77.5 -184.5t27.5 -258q0 -189 -21.5 -329t-53.5 -217.5t-78.5 -123.5t-87 -59.5t-89.5 -13.5q-68 0 -125 43q-49 -43 -213 -43q-41 0 -70.5 4t-61 15.5t-52.5 34t-38 57.5t-25.5 88.5t-8.5 124.5 q0 96 17.5 164.5t48.5 105t66 52.5t77 16q75 0 113 -29q2 68 2 119q1 39 -17.5 56t-60.5 17q-57 0 -97.5 -11t-89.5 -38q-24 45 -24 129q3 32 18 47q31 23 98 41.5t169 18.5q115 0 168.5 -51.5t50.5 -180.5l-6 -379q-3 -116 -9 -198q21 -6 43 -6q119 0 119 477 q0 103 -6.5 177t-24 133.5t-44.5 96.5t-70.5 62t-99.5 35t-134 10q-127 0 -210.5 -31t-142.5 -108.5t-84.5 -209.5t-25.5 -333q0 -259 39 -404.5t126 -208.5t241 -63q285 0 475 66q59 -85 59 -154q0 -64 -136.5 -99.5t-381.5 -35.5q-67 0 -122 5t-112.5 18.5t-103 36 t-90.5 59.5t-78.5 87t-62.5 120t-47 157t-28.5 200t-10.5 247zM688 336q0 -56 1 -79.5t5.5 -48t14.5 -31.5t28 -7q28 0 38 24t11 105l5 205q-10 4 -35 4q-36 0 -52 -37t-16 -135z" />
<glyph unicode="A" horiz-adv-x="894" d="M4 4l342 1391q8 43 92 43q70 0 109 -8l342 -1393q1 -4 1 -8q0 -15 -17 -23q-21 -10 -87 -10q-72 0 -131 4l-67 328h-277l-59 -289q-5 -25 -23 -34t-82 -9q-72 0 -143 8zM354 532h191l-41 193q-30 146 -53 387q-27 -249 -56 -387z" />
<glyph unicode="B" horiz-adv-x="735" d="M61 0v1393q0 21 13 31t45 10h200q347 0 347 -322q0 -146 -57 -232t-132 -96q236 -24 236 -297q0 -105 -22 -191.5t-66.5 -153.5t-119.5 -104.5t-175 -37.5h-269zM293 197h43q50 0 78 71.5t28 198.5q0 68 -6 110.5t-20.5 64t-31 28t-44.5 6.5h-47v-479zM293 868h41 q38 0 60 53t22 142q0 100 -20 136t-54 36h-49v-367z" />
<glyph unicode="C" horiz-adv-x="665" d="M41 670q0 784 410 784q62 0 103 -9.5t59.5 -28.5t25 -37.5t6.5 -45.5q0 -65 -33 -137q-49 35 -106 35q-38 0 -68.5 -13t-61 -49.5t-50.5 -95t-32.5 -157t-12.5 -228.5q0 -179 17 -278t50.5 -138t93.5 -39q100 0 160 31q31 -64 31 -133q0 -72 -66 -111.5t-184 -39.5 q-73 0 -124 16.5t-94.5 60.5t-69.5 121.5t-40 199t-14 292.5z" />
<glyph unicode="D" horiz-adv-x="739" d="M61 0v1393q0 21 13 31t45 10h196q86 0 147 -16.5t111.5 -59t81 -116t46.5 -185.5t16 -269q0 -413 -92.5 -600.5t-298.5 -187.5h-265zM289 215h43q22 0 38.5 11.5t33.5 49t28 101t18 174t7 262.5q0 134 -8.5 219t-27 126t-39 55t-52.5 14h-41v-1012z" />
<glyph unicode="E" horiz-adv-x="616" d="M61 0v1393q0 5 1.5 11.5t12 18t27.5 11.5h492q0 -142 -5.5 -172.5t-35.5 -30.5h-264v-350h250q0 -138 -5.5 -173.5t-31.5 -35.5h-213v-469h291q0 -146 -5 -174.5t-34 -28.5h-480z" />
<glyph unicode="F" horiz-adv-x="606" d="M61 0v1393q0 5 1.5 11.5t12 18t27.5 11.5h492q0 -139 -5.5 -166t-35.5 -27h-264v-360h250q0 -138 -5.5 -172.5t-31.5 -34.5h-213v-633q2 -2 2 -4q0 -6 -2 -13.5t-11 -15.5t-24 -8h-193z" />
<glyph unicode="G" horiz-adv-x="757" d="M41 670q0 163 13 287t41 209.5t64.5 142.5t89.5 88.5t110 44t133 12.5q105 0 164 -35t59 -84q0 -60 -29 -145q-23 18 -63.5 29.5t-81.5 11.5q-63 0 -106 -19.5t-72.5 -57.5t-46 -105t-23 -152t-6.5 -209q0 -210 14.5 -313.5t44 -137.5t88.5 -34q52 0 68 20v459h-96v147 q0 41 49 41h258v-827q-97 -63 -283 -63q-79 0 -135.5 12.5t-101.5 44.5t-73 81.5t-46 129t-25.5 180.5t-7.5 242z" />
<glyph unicode="H" horiz-adv-x="784" d="M63 0v1393q0 24 9 30q18 11 150 11h69v-564h201v523v2q0 29 28.5 34t198.5 5v-1393v-2q0 -29 -28.5 -34t-198.5 -5v657h-201v-616q0 -24 -9 -30q-18 -11 -151 -11h-68z" />
<glyph unicode="I" horiz-adv-x="356" d="M61 0v1333q0 75 30.5 88t201.5 13v-1393q0 -31 -30 -36t-202 -5z" />
<glyph unicode="J" horiz-adv-x="616" d="M20 119q0 14 1.5 27.5t3.5 22.5t6.5 22.5l6 18t7.5 18t6 14.5q81 -60 164 -60q67 0 88 37.5t21 155.5v958q0 75 29 88t202 13v-1104q0 -175 -72 -261.5t-235 -86.5q-71 0 -118.5 11t-70 32t-31 42.5t-8.5 51.5z" />
<glyph unicode="K" horiz-adv-x="794" d="M57 0v1393q0 31 29.5 36t202.5 5v-588l227 573q78 17 146 17q102 0 102 -39q0 -7 -4 -19l-238 -557q112 -103 169 -304t57 -474q0 -28 -18 -37.5t-77 -9.5q-79 0 -164 6q-1 107 -6 188t-19 167.5t-42 154.5t-70 115q-29 32 -63 47v-633q0 -31 -29.5 -36t-202.5 -5z" />
<glyph unicode="L" horiz-adv-x="612" d="M61 0v1376q0 43 30 50.5t198 7.5v-1221h291v-172q0 -41 -39 -41h-480z" />
<glyph unicode="M" horiz-adv-x="976" d="M61 0v1393q0 28 9.5 34.5t31.5 6.5h172l164 -508q18 -56 32 -107.5t19 -75.5l5 -24q14 84 49 203l141 471q8 25 15.5 33t25.5 8h190v-1393q0 -31 -29 -36t-204 -5l10 393q4 146 19 299t28 234l13 80l-7 4q-80 -317 -104 -381l-98 -273q-5 -14 -23 -14h-94l-96 287 q-30 95 -101 381l-6 -4q6 -31 15.5 -86.5t25.5 -216t17 -308.5l6 -354q0 -30 -31.5 -35.5t-194.5 -5.5z" />
<glyph unicode="N" horiz-adv-x="880" d="M61 0v1393q0 22 9.5 31.5t31.5 9.5h181l215 -539q47 -121 120 -434q-26 248 -26 454v478q0 31 29.5 36t197.5 5v-1393q0 -41 -41 -41h-176l-217 549q-57 146 -125 459q29 -264 29 -476v-491q0 -31 -29.5 -36t-198.5 -5z" />
<glyph unicode="O" horiz-adv-x="839" d="M41 725q0 208 23.5 349t73.5 224.5t121 119.5t173 36q137 0 214 -62.5t114 -219t37 -439.5q0 -286 -42 -451.5t-124.5 -233.5t-220.5 -68q-70 0 -121 13t-93.5 45.5t-70.5 86.5t-47.5 137.5t-28 196.5t-8.5 266zM301 674q0 -257 23.5 -358t97.5 -101t99.5 112.5 t25.5 397.5q0 290 -21 392t-98 102q-73 0 -100 -119.5t-27 -425.5z" />
<glyph unicode="P" horiz-adv-x="714" d="M61 0v1393q0 23 8 32t33 9h17h176q81 0 141 -12t110.5 -40.5t82 -76.5t48.5 -121t17 -172q0 -107 -22.5 -189t-58.5 -132.5t-88 -82t-105 -43.5t-115 -12h-16v-512q0 -31 -29.5 -36t-198.5 -5zM289 764h43q36 0 57.5 20.5t35 82.5t13.5 173q0 100 -21.5 148.5t-70.5 48.5 h-57v-473z" />
<glyph unicode="Q" horiz-adv-x="839" d="M41 725q0 208 23.5 349t73.5 224.5t121 119.5t173 36q137 0 214 -62.5t114 -219t37 -439.5q0 -303 -45.5 -470t-143.5 -232q9 -72 30.5 -103.5t63.5 -31.5q70 0 123 34q31 -51 31 -118q0 -31 -21.5 -53t-56 -32t-64.5 -14t-59 -4q-119 0 -192 66t-115 207 q-114 12 -179 80.5t-96.5 226.5t-31.5 436zM301 674q0 -257 23.5 -358t97.5 -101t99.5 112.5t25.5 397.5q0 290 -21 392t-98 102q-73 0 -100 -119.5t-27 -425.5z" />
<glyph unicode="R" horiz-adv-x="747" d="M61 0v1393q0 5 1 11.5t11.5 18t28.5 11.5h193q81 0 141 -12t110.5 -40.5t82 -76.5t48.5 -121t17 -172q0 -273 -143 -385q164 -217 176 -582q0 -22 -6.5 -31.5t-32 -14.5t-80.5 -5q-56 0 -133 6q-9 373 -133 555l-37 -2h-16v-512q0 -31 -29.5 -36t-198.5 -5zM289 764h43 q36 0 57.5 20t35 78.5t13.5 161.5q0 111 -21.5 162t-70.5 51h-57v-473z" />
<glyph unicode="S" horiz-adv-x="704" d="M31 1141q0 143 93.5 228t270.5 85q149 0 214 -29t65 -86q0 -69 -53 -127q-20 14 -72.5 27.5t-106.5 13.5q-163 0 -163 -106q0 -47 16.5 -86.5t58.5 -95.5l197 -252q71 -91 97 -166.5t26 -167.5q0 -399 -373 -399q-131 0 -199.5 39.5t-68.5 97.5q0 87 51 164 q33 -30 84.5 -49t105.5 -19q82 0 117 41t35 119q0 54 -19.5 101t-72.5 118l-187 248q-66 88 -91 157.5t-25 143.5z" />
<glyph unicode="T" horiz-adv-x="778" d="M20 1221v172q0 22 9.5 31.5t31.5 9.5h697v-172q0 -24 -9 -32.5t-32 -8.5h-219v-1180q0 -31 -30 -36t-198 -5v1221h-250z" />
<glyph unicode="U" horiz-adv-x="843" d="M61 393v998q0 32 29.5 37.5t206.5 5.5v-1049q0 -106 26.5 -151.5t104.5 -45.5q73 0 121 25v1178q0 32 29 37.5t202 5.5v-1377q-44 -29 -138.5 -53t-213.5 -24q-94 0 -161.5 22t-107 57t-62 91.5t-29.5 111.5t-7 131z" />
<glyph unicode="V" horiz-adv-x="860" d="M10 1405q0 15 12.5 22t43.5 7h190l104 -672q35 -226 76 -576q28 313 68 576l90 610q5 35 15.5 48.5t39.5 13.5h201l-272 -1434q-102 -12 -199 -12q-102 0 -127 121q-32 145 -91.5 461t-102.5 560l-44 244q-4 24 -4 31z" />
<glyph unicode="W" horiz-adv-x="1368" d="M12 1401q0 19 11.5 26t42.5 7h190l102 -672q43 -284 58 -531h16q5 254 51 531l88 549q5 35 15.5 48t40.5 13h12h147l107 -610q34 -200 59 -531h17q11 267 49 531l88 610q5 35 15 48.5t38 13.5h199l-246 -1434q-108 -12 -199 -12q-51 0 -79 32.5t-41 96.5l-48 227 q-39 193 -67 530q-36 -366 -64 -530l-57 -344q-100 -10 -217 -10q-44 0 -72 35t-39 92q-30 148 -84 462t-93 555l-38 240q-2 10 -2 27z" />
<glyph unicode="X" horiz-adv-x="862" d="M14 0l279 735l-223 660q-7 22 9 29q25 10 211 10h1h1h1h1h1h1h1h1h1h1h1h1h1h1h1h1h1h1h1h1h1h1h1h1h1h1h1h1h1h1h1h1h1h1h1h1h1h1h1h1h1h1h1h9l59 -215q26 -86 58 -236q30 140 59 236l53 178q7 28 38 32.5t204 4.5l-229 -670l254 -731q6 -9 6 -17q0 -16 -29 -16h-252 l-78 240q-39 118 -71 243q-34 -131 -76 -243l-80 -211q-9 -17 -18.5 -23t-28.5 -6h-197z" />
<glyph unicode="Y" horiz-adv-x="753" d="M12 1399q-2 7 -2 12q0 10 7 13q19 10 193 10h62l60 -269q16 -70 34 -194.5t25 -200.5q6 71 25.5 197.5t36.5 199.5l49 226q9 31 39.5 36t203.5 5l-249 -832v-561q0 -24 -9 -30q-18 -11 -151 -11h-68v588z" />
<glyph unicode="Z" horiz-adv-x="770" d="M27 88q0 46 18 94l424 1051h-322q-60 0 -96 -10v168q0 20 12 31.5t31 11.5h615q20 -33 20 -72q0 -44 -20 -96l-435 -1065h320q88 0 137 20v-180q0 -20 -9 -30.5t-32 -10.5h-633q-30 34 -30 88z" />
<glyph unicode="[" horiz-adv-x="718" d="M180 -410v2026q0 32 7.5 42.5t42.5 16.5t124 6h348q0 -144 -9.5 -178.5t-55.5 -34.5h-225v-1665h290q0 -156 -9 -184.5t-56 -28.5h-457z" />
<glyph unicode="\" horiz-adv-x="735" d="M20 1532q0 23 42.5 29t187.5 6l461 -1575q4 -16 4 -23q0 -21 -40 -25.5t-192 -4.5l-458 1568q-1 4 -2 9.5t-2 9t-1 6.5z" />
<glyph unicode="]" horiz-adv-x="718" d="M16 -410q0 144 10 178.5t56 34.5h225v1667h-291q0 155 9.5 184t56.5 29h457v-2027q0 -32 -7.5 -43t-43 -17t-123.5 -6h-349z" />
<glyph unicode="^" horiz-adv-x="880" d="M76 530l381 314l307 -258q39 -31 39 -72q0 -39 -31.5 -69.5t-77.5 -36.5l-264 141l-190 -115q-39 -20 -60 -20q-46 0 -74 35.5t-30 80.5z" />
<glyph unicode="_" horiz-adv-x="757" d="M20 -258q0 115 6.5 155t34.5 40h676q0 -116 -6.5 -155.5t-34.5 -39.5h-676z" />
<glyph unicode="`" horiz-adv-x="573" d="M100 1305q10 62 39.5 113.5t65.5 51.5q19 0 118.5 -87t149.5 -154q-1 -5 -3.5 -13.5t-10.5 -30t-17.5 -38t-24.5 -30t-32 -13.5q-20 2 -134.5 80.5t-150.5 120.5z" />
<glyph unicode="a" horiz-adv-x="694" d="M41 299q0 101 19.5 170.5t55 104.5t74.5 49t89 14q85 0 131 -31v142q0 42 -19.5 59.5t-66.5 17.5q-131 0 -248 -43q-31 58 -31 131q0 49 29 72q26 21 110 40t195 19q142 0 200 -56t58 -193v-97q0 -501 -10 -653q-111 -65 -295 -65q-52 0 -89.5 5.5t-78 25t-65.5 53 t-41.5 93t-16.5 142.5zM281 305q0 -76 14.5 -107.5t52.5 -31.5q41 0 58 20q4 47 4 267q-21 18 -54 18q-38 0 -56.5 -36t-18.5 -130z" />
<glyph unicode="b" horiz-adv-x="749" d="M72 41v1362q0 73 37.5 87.5t189.5 14.5v-520q72 59 176 59q123 0 177.5 -94t54.5 -321q0 -121 -13 -219t-34.5 -164.5t-53.5 -116t-65 -77.5t-75 -45t-77.5 -22t-77.5 -5q-165 0 -239 61zM299 195q20 -17 47 -17q14 0 27 9t27.5 36t25.5 70t18 119t7 176q0 137 -20 195.5 t-60 58.5q-41 0 -72 -31v-616z" />
<glyph unicode="c" horiz-adv-x="598" d="M41 489q0 142 22.5 246t56.5 162.5t85 92.5t97 44t104 10q76 0 122.5 -27.5t46.5 -76.5q0 -62 -20 -121q-64 27 -129 27q-25 0 -44 -6.5t-39.5 -28t-33.5 -58.5t-21.5 -102.5t-8.5 -156.5q0 -180 29 -247t110 -67q71 0 131 29q18 -74 18 -119q0 -50 -62 -80t-161 -30 q-66 0 -112 12.5t-84.5 44.5t-60.5 89.5t-34 146.5t-12 216z" />
<glyph unicode="d" horiz-adv-x="735" d="M41 465q0 299 77 439t206 140q75 0 120 -36v397q0 71 38.5 85.5t189.5 14.5v-1464q-138 -61 -299 -61q-59 0 -102 8.5t-89 37.5t-75 80.5t-47.5 142t-18.5 216.5zM297 494q0 -121 9 -190.5t25 -96.5t44 -27q42 0 69 21v639q-15 10 -45 10q-15 0 -26.5 -4t-27 -24t-25 -56 t-16.5 -105.5t-7 -166.5z" />
<glyph unicode="e" horiz-adv-x="706" d="M41 463q0 144 20 250.5t51.5 169t80 99.5t97.5 49.5t111 12.5q263 0 263 -333q0 -175 -29 -291q-122 -24 -356 -29q6 -103 35 -146.5t100 -43.5q100 0 217 57q18 -61 18 -152q0 -59 -83 -92.5t-208 -33.5q-59 0 -105 12.5t-87 45.5t-67.5 86.5t-42 139t-15.5 199.5z M279 569q111 0 153 19q10 31 10 106q0 95 -14.5 124.5t-54.5 29.5q-46 0 -67.5 -67t-26.5 -212z" />
<glyph unicode="f" horiz-adv-x="536" d="M20 836q0 134 7.5 161t48.5 27h67v117q0 91 22 159.5t55.5 108t82.5 63.5t95.5 31.5t101.5 7.5q98 0 151.5 -26.5t53.5 -79.5q0 -59 -23 -123q-55 27 -139 27t-128 -31t-44 -113v-141h149q0 -71 -1 -104.5t-6 -54.5t-12.5 -25t-23.5 -4h-106v-795q0 -5 -1 -11.5 t-11.5 -18t-28.5 -11.5h-187v836h-123z" />
<glyph unicode="g" horiz-adv-x="782" d="M20 -172q0 136 140 231q-111 32 -111 111q0 91 129 197q-123 82 -123 297q0 107 23.5 182t70 117.5t108 61.5t144.5 19q51 0 103 -18h244q24 -50 24 -111q0 -42 -19.5 -63t-52.5 -21q-15 0 -43 7q50 -76 50 -189q0 -169 -78.5 -251.5t-253.5 -82.5q-37 0 -53 2 q-29 -37 -29 -57q0 -17 21.5 -23t74.5 -12q55 -4 82 -10q138 -23 204 -80.5t66 -173.5q0 -160 -96.5 -261t-292.5 -101q-332 0 -332 229zM256 -113q0 -42 26.5 -62t94.5 -20q69 0 101 39t32 86q0 35 -9.5 53t-48 32t-116.5 22q-80 -66 -80 -150zM297 674q0 -109 18.5 -150 t69.5 -41q50 0 71 47t21 181q0 96 -19.5 135t-66.5 39q-94 0 -94 -211z" />
<glyph unicode="h" horiz-adv-x="741" d="M68 0v1405q0 71 38.5 85.5t188.5 14.5v-532q35 34 89 52.5t108 18.5q112 0 150 -61.5t38 -202.5v-739q0 -30 -33 -35.5t-203 -5.5v709q0 29 -2 47.5t-7.5 39t-19.5 30.5t-36 10q-42 0 -84 -27v-768q0 -31 -28.5 -36t-198.5 -5z" />
<glyph unicode="i" horiz-adv-x="368" d="M68 0v924q0 71 40 85.5t191 14.5v-983q0 -31 -29.5 -36t-201.5 -5zM68 1282q0 74 31.5 117t93.5 43t85 -33q21 -30 21 -104v-13q0 -83 -31 -128.5t-90 -45.5q-55 0 -82.5 36.5t-27.5 127.5z" />
<glyph unicode="j" horiz-adv-x="382" d="M-184 -281q0 73 30 111q61 -27 148 -27q55 0 72.5 31.5t17.5 122.5v967q0 26 3 42.5t16 28t24 17t44.5 8.5t58 3.5t81.5 0.5v-1098q0 -70 -12 -125t-41.5 -103t-87.5 -74.5t-141 -26.5q-116 0 -164.5 29t-48.5 93zM76 1282q0 74 31.5 117t93.5 43t85 -33t23 -117 q0 -83 -32 -128.5t-91 -45.5q-55 0 -82.5 36.5t-27.5 127.5z" />
<glyph unicode="k" horiz-adv-x="739" d="M68 0v1405q0 71 39.5 85.5t189.5 14.5v-520q102 59 219 59q94 0 132 -50.5t38 -123.5q0 -103 -37 -181.5t-84 -127.5q150 -107 150 -391q0 -68 -6 -135q-3 -26 -36 -30.5t-224 -4.5q10 113 10 201q0 123 -20 188.5t-70 65.5q-18 0 -36 -7.5t-27 -15.5l-9 -8v-383v-1 q0 -30 -28.5 -35t-200.5 -5zM297 575q67 38 100 87.5t33 121.5q0 58 -41 58q-48 0 -92 -60v-207z" />
<glyph unicode="l" horiz-adv-x="364" d="M68 0v1405q0 26 3 42.5t16 28t24 17t44.5 8.5t58 3.5t81.5 0.5v-1464q0 -31 -28.5 -36t-198.5 -5z" />
<glyph unicode="m" horiz-adv-x="1087" d="M68 0v977q145 67 315 67q110 0 172 -53q116 53 242 53q77 0 124 -17.5t70 -57t30 -84t7 -119.5v-725q0 -30 -30.5 -35.5t-196.5 -5.5v760q0 50 -13 68t-49 18q-41 0 -77 -19v-299v-4v-485q0 -23 -10 -29q-18 -10 -156 -10h-19h-43v770q0 51 -11 65.5t-48 14.5 q-35 0 -80 -25v-784q0 -30 -30 -35.5t-197 -5.5z" />
<glyph unicode="n" horiz-adv-x="741" d="M68 0v977q53 25 148.5 46t168.5 21q161 0 228 -57t67 -207v-739q0 -30 -31 -35.5t-205 -5.5v709q0 84 -12.5 112.5t-54.5 28.5q-43 0 -82 -25v-784q0 -31 -29.5 -36t-197.5 -5z" />
<glyph unicode="o" horiz-adv-x="741" d="M41 514q0 530 340 530q115 0 181.5 -43.5t102 -158.5t35.5 -320q0 -289 -82.5 -415.5t-252.5 -126.5q-50 0 -87.5 5.5t-73 20t-60 40t-45.5 65.5t-33 96.5t-18.5 132.5t-6.5 174zM291 516q0 -154 10.5 -232t25.5 -97t44 -19q14 0 24 5.5t21.5 26.5t18.5 57.5t11.5 102 t4.5 156.5q0 149 -7.5 220.5t-23 95.5t-47.5 24q-25 0 -41.5 -22.5t-28.5 -101t-12 -216.5z" />
<glyph unicode="p" horiz-adv-x="743" d="M68 -303v1268q129 79 303 79q78 0 134.5 -18t102.5 -63t69 -128t23 -206q0 -160 -14 -278t-37.5 -188t-59 -112t-72.5 -56.5t-85 -14.5q-91 0 -137 38v-403q-49 -18 -117 -18q-62 0 -86 20.5t-24 79.5zM295 219q27 -39 59 -39q11 0 19.5 3.5t18.5 14.5t17.5 29.5 t14.5 51.5t11.5 78t7.5 110t3 147q0 98 -10 150t-27.5 69t-50.5 17q-31 0 -63 -25v-606z" />
<glyph unicode="q" horiz-adv-x="745" d="M41 440q0 604 426 604q124 0 215 -61v-1288q0 -65 -24 -82t-109 -19q-28 0 -98 9v446q-43 -69 -154 -69q-43 0 -77.5 10.5t-69 40.5t-57.5 79.5t-37.5 133.5t-14.5 196zM301 451q0 -108 10 -170t26.5 -83.5t43.5 -21.5q53 0 70 74v579q-18 21 -45 21q-25 0 -43 -18.5 t-32.5 -62t-22 -123t-7.5 -195.5z" />
<glyph unicode="r" horiz-adv-x="509" d="M68 0v952q139 92 284 92q80 0 108.5 -23.5t28.5 -78.5q0 -69 -22 -131q-33 16 -76 16q-49 0 -92 -32v-754q0 -31 -29 -36t-202 -5z" />
<glyph unicode="s" horiz-adv-x="653" d="M37 791q0 116 80 184.5t258 68.5q66 0 114 -9t74 -21.5t41 -31.5t19 -34t4 -33q0 -59 -43 -108q-79 43 -178 43t-99 -64q0 -40 62 -102l151 -154q60 -69 81.5 -123.5t21.5 -132.5q0 -137 -92 -215.5t-250 -78.5q-242 0 -242 120q0 60 37 127q83 -45 180 -45 q53 0 79.5 23.5t26.5 64.5q0 61 -47 115l-178 188q-100 103 -100 218z" />
<glyph unicode="t" horiz-adv-x="581" d="M18 831q0 72 1 104t6.5 55.5t14 28.5t26.5 5h77v297q0 51 39.5 61.5t188.5 10.5v-369h168q0 -133 -6.5 -163t-38.5 -30h-123v-559q0 -24 1 -36.5t5 -30t15 -25.5t28 -8q48 0 106 27q15 -72 15 -109q0 -110 -187 -110q-66 0 -108.5 18.5t-64.5 58.5t-30 88.5t-8 122.5v563 h-125z" />
<glyph unicode="u" horiz-adv-x="735" d="M59 289v694q0 31 29.5 36t206.5 5v-750q0 -54 15 -77t57 -23q46 0 77 27v782q0 24 10 30q18 11 156 11h62v-967q-55 -32 -136 -54.5t-167 -22.5q-91 0 -152 20t-95.5 62t-48.5 96t-14 131z" />
<glyph unicode="v" horiz-adv-x="675" d="M16 987q0 26 42 31.5t210 5.5l39 -297q10 -78 20.5 -200.5t15.5 -205.5l5 -83h4q18 313 41 491l29 250q4 34 34.5 39.5t205.5 5.5l-205 -1024q-59 -10 -166 -10q-73 0 -94 102l-177 864q-4 24 -4 31z" />
<glyph unicode="w" horiz-adv-x="1077" d="M12 981v6q0 26 32 31q36 6 220 6l41 -289q12 -88 22.5 -210t15.5 -199l5 -78h17q0 11 4 57q4 135 18 242l57 411q5 30 17 38t55 8h37h115l69 -457q6 -40 12.5 -115t9.5 -130l3 -54h16q12 275 39 487l31 244q4 33 33.5 39t185.5 6q-191 -1024 -205 -1024q-43 -10 -147 -10 q-41 0 -75 25t-42 77l-20 135q-17 109 -29 328q-10 -198 -31 -328l-37 -227q-114 -10 -196 -10q-70 0 -92 100q-24 108 -69.5 331t-78.5 391z" />
<glyph unicode="x" horiz-adv-x="778" d="M14 0l242 530l-211 457q-4 16 -4 19q0 13 40.5 15.5t203.5 2.5l47 -113q22 -58 74 -217q36 124 73 217l31 74q12 29 44 34t204 5l-228 -477l224 -498q8 -24 8 -26q0 -16 -37.5 -19.5t-179.5 -3.5h-45l-43 100q-22 51 -88 240q-63 -197 -80 -240l-23 -57q-12 -31 -51 -37 t-201 -6z" />
<glyph unicode="y" horiz-adv-x="698" d="M-23 -293q0 73 29 123q49 -35 139 -35q85 0 105 172l-225 998q-1 3 -3 13t-2 15q0 22 38 26.5t190 4.5l61 -358q14 -79 26.5 -182t18.5 -166l6 -64q18 232 43 412l41 295q6 47 37.5 55t204.5 8l-229 -1071q-43 -201 -104.5 -274.5t-186.5 -73.5q-106 0 -147.5 27 t-41.5 75z" />
<glyph unicode="z" horiz-adv-x="616" d="M20 113q0 38 19 80l303 643h-168q-73 0 -137 -11q-8 47 -8 103q0 52 16 74t55 22h473q23 -23 23 -68q0 -46 -27 -106l-282 -641h114q111 0 183 29q8 -33 8 -99q-2 -75 -20 -107t-72 -32h-441q-4 4 -10.5 11.5t-17.5 36.5t-11 65z" />
<glyph unicode="{" horiz-adv-x="544" d="M57 594q0 76 41 106q22 16 32 25t24.5 29.5t20 52.5t5.5 78q0 77 -16 221q-12 126 -12 172q0 120 86.5 182t230.5 64q43 -64 43 -142q0 -68 -35 -77q-94 -13 -94 -150q0 -41 8 -151q10 -153 10 -197q0 -61 -13 -101t-32.5 -59.5t-52.5 -34.5q50 -24 74 -66t24 -130 q0 -42 -10 -185q-8 -102 -8 -147q0 -89 26.5 -129t86.5 -51q6 -56 6 -86q0 -56 -20.5 -89.5t-55.5 -33.5q-147 0 -210.5 73t-63.5 205q0 82 14 189q14 138 14 186q0 77 -23.5 111t-80.5 45q-19 42 -19 90z" />
<glyph unicode="|" horiz-adv-x="591" d="M180 -410v2020q0 42 31 50.5t201 8.5v-2025q0 -40 -30 -47t-202 -7z" />
<glyph unicode="}" horiz-adv-x="544" d="M35 -164q0 68 35 76q94 13 94 149q0 44 -8 154q-9 137 -9 195q0 89 23 131.5t72 64.5q-48 22 -71.5 65.5t-23.5 131.5q0 54 9 182q8 106 8 150q0 87 -27 127.5t-86 52.5q-8 47 -8 86q0 55 22 89t58 34q272 0 272 -279q0 -48 -14 -186q-14 -107 -14 -191q0 -77 23 -110.5 t79 -44.5q20 -44 20 -88q0 -76 -43 -107q-29 -22 -41.5 -35t-25 -51.5t-12.5 -99.5q0 -53 14 -221q14 -110 14 -172q0 -119 -87 -181.5t-230 -62.5q-43 61 -43 141z" />
<glyph unicode="~" horiz-adv-x="819" d="M18 559q33 49 114.5 89t170.5 40q14 0 27 -1t22.5 -2.5t21 -5t17 -5t16 -6.5t13.5 -6.5t14 -7.5t12 -7q50 -33 101 -33q54 0 125 58q18 10 39 10q40 0 66 -40.5t28 -102.5q-34 -48 -111.5 -89.5t-167.5 -41.5q-35 0 -66 8.5t-43.5 15t-37.5 21.5q-2 1 -10.5 6t-11 6 t-10 5t-11.5 5t-11 3.5t-13 3.5t-13.5 2t-15.5 1q-42 0 -101 -41q-47 -30 -71 -30q-38 0 -65 39.5t-28 105.5z" />
<glyph unicode="&#xa1;" horiz-adv-x="413" d="M55 -403l49 839q2 26 6 43.5t16.5 29.5t26 18.5t43 10t57.5 4.5t79 1l43 -879q1 -46 -52 -56.5t-268 -10.5zM76 893q0 62 39 103.5t106 41.5q80 0 112 -36t32 -109q0 -62 -39 -105t-105 -43q-79 0 -112 38.5t-33 109.5z" />
<glyph unicode="&#xa2;" d="M150 475q0 466 239 549v137q0 53 49 71.5t158 18.5v-219q38 -11 62 -28t24 -35q0 -105 -20 -160q-64 27 -130 27q-26 0 -45 -5.5t-41.5 -26t-37 -56t-24 -102t-9.5 -157.5q0 -84 5 -138.5t14 -88t28 -49.5t39 -20.5t55 -4.5q30 0 72.5 8.5t66.5 20.5q19 -62 19 -139 q0 -30 -39 -57.5t-94 -36.5v-158q0 -50 -48 -66t-159 -16v250q-63 18 -101.5 63t-60.5 147.5t-22 270.5z" />
<glyph unicode="&#xa3;" horiz-adv-x="710" d="M31 563q0 116 6.5 155.5t34.5 39.5h65q15 238 97.5 349.5t232.5 111.5q87 0 146 -29.5t59 -95.5q0 -54 -27 -133q-58 28 -119 28q-70 0 -111.5 -52t-49.5 -179h223q0 -115 -6.5 -155t-34.5 -40h-185q0 -168 13 -340l258 -16q16 -52 16 -103q0 -104 -96 -104h-393 q-21 245 -25 563h-104z" />
<glyph unicode="&#xa4;" horiz-adv-x="1226" d="M14 997q36 36 52.5 52t38 35t34 25.5t23.5 6.5q12 0 20 -8l154 -154q98 76 287 76q181 0 274 -72l178 179q65 -65 91 -96.5t26 -51.5q0 -12 -8 -20l-180 -181q22 -78 22 -210q0 -178 -37 -279l223 -223q-66 -66 -96.5 -91.5t-50.5 -25.5q-13 0 -18 8l-175 174 q-92 -63 -254 -63q-170 0 -264 61l-200 -200q-38 38 -52 52.5t-34.5 37t-26.5 34.5t-6 23q0 10 8 18l190 193q-32 92 -32 248q0 144 26 239zM428 539q0 -147 45 -209t152 -62q98 0 140 72t42 238q0 145 -40 206.5t-134 61.5q-112 0 -158.5 -71t-46.5 -236z" />
<glyph unicode="&#xa5;" d="M43 1399q-6 20 5 25q19 10 193 10h62l57 -269q46 -184 56 -334q14 155 59 336l57 226q9 31 39.5 36t204.5 5l-164 -547h170q0 -107 -15.5 -147t-68.5 -40h-141l-29 -98v-63h254q0 -107 -15.5 -147t-68.5 -40h-170v-311v-2q0 -29 -28.5 -34t-198.5 -5v352h-254 q0 108 15.5 147.5t68.5 39.5h170v49l-37 112h-217q0 107 15.5 147t68.5 40h74z" />
<glyph unicode="&#xa6;" horiz-adv-x="468" d="M119 373q0 53 25.5 72.5t95.5 19.5q56 0 106 -16v-773q0 -53 -21 -67.5t-96 -14.5q-65 0 -110 13v766zM119 670v762q0 53 25.5 72.5t95.5 19.5q53 0 106 -17v-768q0 -51 -21.5 -66.5t-95.5 -15.5q-53 0 -110 13z" />
<glyph unicode="&#xa7;" horiz-adv-x="667" d="M45 780q0 51 24 105.5t76 95.5l-14 23q-63 94 -63 178q0 121 92 189.5t229 68.5q90 0 141.5 -26t67.5 -62q8 -21 8 -47q0 -70 -39 -140q-57 31 -133 31q-104 0 -104 -63q0 -22 11 -43t38 -56q3 -4 19.5 -21.5t25.5 -29.5q89 -93 133 -162q30 -42 42.5 -79.5t12.5 -90.5 q0 -119 -98 -200l16 -23q62 -96 62 -178q0 -121 -92 -189.5t-228 -68.5q-92 0 -144.5 27t-66.5 63q-8 14 -8 45q0 75 39 139q56 -30 133 -30q52 0 78.5 17t26.5 46q0 22 -11.5 42.5t-39.5 55.5q-6 8 -21.5 26t-21.5 26q-97 106 -134 161q-30 44 -43.5 82t-13.5 88zM258 760 q0 -48 47 -113q15 -25 41 -47q26 10 41.5 32.5t15.5 41.5q0 40 -47 110q-20 27 -43 47q-26 -8 -40.5 -29.5t-14.5 -41.5z" />
<glyph unicode="&#xa8;" horiz-adv-x="573" d="M43 1282q0 70 30 111t89 41t81.5 -31.5t22.5 -110.5q0 -80 -30.5 -123t-88.5 -43q-51 0 -77.5 35t-26.5 121zM307 1282q0 70 30.5 111t90.5 41q58 0 79 -31.5t21 -110.5q0 -80 -29.5 -123t-84.5 -43q-53 0 -80 35t-27 121z" />
<glyph unicode="&#xa9;" horiz-adv-x="983" d="M66 1110q0 225 112.5 334.5t325.5 109.5q217 0 315.5 -101.5t98.5 -336.5q0 -222 -111 -342.5t-324 -120.5q-214 0 -315.5 113t-101.5 344zM231 1116q0 -164 64 -234.5t192 -70.5q52 0 96.5 15t82.5 48.5t60 95t22 146.5q0 145 -59.5 219t-188.5 74q-269 0 -269 -293z M334 1094q0 66 11.5 115t29.5 76.5t44 44t49 21.5t52 5t58.5 -11.5t29.5 -23.5q0 -40 -10 -78q-45 10 -68 10q-13 0 -22.5 -2t-20.5 -11t-18 -26t-11.5 -48.5t-4.5 -75.5q0 -54 8 -80t20.5 -32.5t40.5 -6.5t70 14q12 -28 12 -74q0 -18 -29 -29.5t-65 -11.5q-52 0 -82 7.5 t-53 31.5t-32 68t-9 117z" />
<glyph unicode="&#xaa;" horiz-adv-x="630" d="M61 846q0 258 207 258q56 0 115 -19v70q0 59 -26.5 80.5t-77.5 21.5q-78 0 -179 -38q-24 35 -24 94q0 43 14 63q56 78 256 78q107 0 165 -56t58 -165v-584q-126 -59 -276 -59q-42 0 -72.5 4.5t-62.5 20.5t-52 43t-32.5 74.5t-12.5 113.5zM242 844q0 -99 77 -99 q41 0 64 19v170q-21 12 -55 12q-42 0 -64 -20.5t-22 -81.5z" />
<glyph unicode="&#xab;" horiz-adv-x="847" d="M12 512q0 40 73 168t145 236l73 108q39 0 73 -29t48 -57l14 -29q0 -46 -54 -145.5t-108 -175.5l-53 -76q9 -11 23.5 -30.5t52 -73t66 -100t52 -98.5t23.5 -83q-2 -5 -6 -13.5t-17 -30.5t-27.5 -39t-37.5 -30.5t-47 -13.5q-12 17 -31.5 45.5t-70 106t-89.5 141.5 t-70.5 128.5t-31.5 90.5zM389 514q0 38 71.5 153.5t142.5 211.5l71 96q24 0 46 -11t36.5 -26.5t26 -31.5t17.5 -27l5 -11q0 -27 -21 -74t-50.5 -93.5t-59.5 -89.5t-51 -70l-21 -27q8 -10 22 -26.5t49.5 -63t62.5 -87.5t49 -87.5t22 -75.5q-2 -5 -6 -13t-17 -28.5t-27 -36 t-36.5 -28.5t-46.5 -13q-32 42 -79.5 106t-126.5 189t-79 164z" />
<glyph unicode="&#xac;" horiz-adv-x="819" d="M70 551q0 48 17 78t52 30h598v-432q-49 -18 -104 -18q-46 0 -77.5 17.5t-31.5 52.5v165h-436q-18 52 -18 107z" />
<glyph unicode="&#xad;" horiz-adv-x="540" d="M61 479q0 117 6.5 157t34.5 40h377q0 -117 -6.5 -157t-34.5 -40h-377z" />
<glyph unicode="&#xae;" horiz-adv-x="983" d="M66 1110q0 225 112.5 334.5t325.5 109.5q217 0 315.5 -101.5t98.5 -336.5q0 -222 -111 -342.5t-324 -120.5q-214 0 -315.5 113t-101.5 344zM231 1116q0 -164 64 -234.5t192 -70.5q52 0 96.5 15t82.5 48.5t60 95t22 146.5q0 145 -59.5 219t-188.5 74q-269 0 -269 -293z M373 866v480q0 12 16 12h76q162 0 162 -150q0 -82 -52 -127q61 -57 66 -196q0 -13 -7.5 -18t-35.5 -5q-19 0 -59 4q-2 129 -43 181l-25 -3h-6v-161q0 -12 -12.5 -14.5t-79.5 -2.5zM465 1133q6 -3 16 -3q43 0 43 89q0 59 -39 59h-20v-145z" />
<glyph unicode="&#xaf;" horiz-adv-x="573" d="M-2 1264q0 50 25 81t67 31h463q22 -45 22 -96q0 -52 -23.5 -84.5t-62.5 -32.5h-475q-16 42 -16 101z" />
<glyph unicode="&#xb0;" horiz-adv-x="702" d="M139 1321q0 215 219 215q110 0 158.5 -46t48.5 -165q0 -217 -219 -217q-109 0 -158 46.5t-49 166.5zM285 1321q0 -76 65 -76q74 0 74 78q0 74 -66 74q-73 0 -73 -76z" />
<glyph unicode="&#xb1;" horiz-adv-x="825" d="M51 35q0 115 6.5 154.5t34.5 39.5h676q0 -115 -6.5 -154.5t-34.5 -39.5h-676zM55 614q0 115 6.5 155t34.5 40h221v219q0 28 39.5 34.5t155.5 6.5v-260h260q0 -116 -6.5 -155.5t-34.5 -39.5h-219v-221q0 -28 -40 -34.5t-155 -6.5v262h-262z" />
<glyph unicode="&#xb2;" horiz-adv-x="745" d="M55 662q0 72 31 108q40 51 160 176q50 51 74 78t44.5 62t20.5 63q0 35 -21 54.5t-75 19.5q-75 0 -180 -62q-35 75 -35 135q0 48 54 85.5t127.5 55t147.5 17.5q145 0 205 -53t60 -160q0 -51 -17 -102t-53 -102t-62 -82.5t-73 -82.5q-11 -13 -32 -35.5t-28 -31.5h273 q12 -61 12 -98q0 -115 -70 -115h-546q-17 38 -17 70z" />
<glyph unicode="&#xb3;" horiz-adv-x="714" d="M53 702q0 72 49 121q93 -45 181 -45q145 0 145 82q0 65 -92 74q-29 4 -119 4q-6 8 -16.5 47t-10.5 57q0 66 68 66q26 0 76 -4q49 41 49 84q0 65 -96 65t-181 -53q-43 49 -43 115q0 45 25 67q83 72 303 72q246 0 246 -182q0 -115 -98 -213q59 -29 92 -77.5t33 -104.5 q0 -79 -29 -139t-80.5 -96t-115 -53.5t-138.5 -17.5q-148 0 -213 45q-35 24 -35 86z" />
<glyph unicode="&#xb4;" horiz-adv-x="573" d="M100 1249q49 68 148.5 155t120.5 87q36 0 65 -52.5t39 -115.5q-36 -40 -151 -118.5t-134 -80.5q-26 0 -48 31t-31 63z" />
<glyph unicode="&#xb5;" horiz-adv-x="751" d="M59 -387v1323q0 52 27.5 76t89.5 24q67 0 113 -14v-750q0 -79 82 -79q49 0 90 18v725q0 54 23 77t89 23q72 0 115 -14v-973q-145 -69 -323 -69q-52 0 -76 24v-311q0 -94 -127 -94q-35 0 -103 14z" />
<glyph unicode="&#xb6;" horiz-adv-x="1093" d="M45 854q0 600 404 600q74 0 144 -17t114 -42v-1319q0 -82 -109 -82q-73 0 -119 16v404q-50 -23 -139 -23q-295 0 -295 463zM281 881q0 -95 10 -160t28.5 -96.5t37.5 -43.5t44 -12q49 0 76 19v661q-25 15 -61 15q-135 0 -135 -383zM805 4v1319q0 52 25.5 72t93.5 20 q47 0 110 -18v-1323q0 -51 -23 -66.5t-98 -15.5q-66 0 -108 12z" />
<glyph unicode="&#xb7;" horiz-adv-x="481" d="M96 549q0 63 39.5 106t106.5 43q78 0 110.5 -38.5t32.5 -110.5q0 -62 -39 -104t-104 -42q-81 0 -113.5 36.5t-32.5 109.5z" />
<glyph unicode="&#xb8;" horiz-adv-x="573" d="M133 -422q19 91 33 105q6 6 19 -0.5t34 -16.5t41 -10q57 0 57 65q0 66 -53 66q-28 0 -51 -3t-32 -6l-9 -3l39 229h115l-23 -121h33q44 0 74 -36.5t30 -108.5q0 -80 -49.5 -135.5t-134.5 -55.5q-31 0 -62 7.5t-46 15.5z" />
<glyph unicode="&#xb9;" horiz-adv-x="720" d="M53 690q0 58 16 86.5t58 28.5h145v399l-186 -33q-27 49 -27 107q0 75 70 104q69 27 166.5 49.5t142.5 22.5q46 0 66 -8v-641h153q11 -68 11 -98q0 -64 -14.5 -89.5t-51.5 -25.5h-536q-13 56 -13 98z" />
<glyph unicode="&#xba;" horiz-adv-x="667" d="M55 1022q0 432 289 432q95 0 151.5 -35.5t86.5 -129.5t30 -261q0 -436 -286 -436q-69 0 -117.5 20.5t-84 69t-52.5 132.5t-17 208zM244 1014q0 -96 10 -149.5t27.5 -72t46.5 -18.5q49 0 72.5 54t23.5 190q0 97 -8.5 148.5t-25.5 70t-48 18.5q-49 0 -73.5 -54t-24.5 -187z " />
<glyph unicode="&#xbb;" horiz-adv-x="847" d="M41 174q0 48 50.5 132.5t101.5 145.5l51 60q4 2 -43 68q-46 63 -71 99.5t-56 96.5t-31 92q0 35 30 63.5t61 40.5l30 11q12 -15 31.5 -41.5t69.5 -97t88.5 -129t70 -118.5t31.5 -85q0 -42 -72.5 -158t-145.5 -212l-73 -95q-5 2 -13.5 5t-29.5 14t-37 24.5t-29.5 36 t-13.5 47.5zM408 127q0 31 22.5 81.5t54 101.5t63.5 97.5t54 75.5l23 29q-9 12 -23.5 32.5t-51.5 76.5t-65.5 104.5t-51.5 101.5t-23 82q0 35 34 63.5t68 39.5l33 12q12 -17 31.5 -46t69.5 -106.5t88.5 -141.5t70 -128.5t31.5 -89.5q0 -42 -73 -170t-147 -235l-73 -107 q-5 2 -14.5 5t-32.5 14t-41 24.5t-32.5 36t-14.5 47.5z" />
<glyph unicode="&#xbc;" horiz-adv-x="1898" d="M53 690q0 59 15.5 87t58.5 28h145v399l-186 -33q-27 45 -27 107q0 75 70 104q70 27 166.5 49.5t142.5 22.5t66 -8v-641h153q11 -68 11 -98q0 -64 -14.5 -89.5t-51.5 -25.5h-539q-10 54 -10 98zM565 55l541 1344q11 55 78 55q85 0 155 -76l-544 -1355q-5 -17 -22.5 -30 t-45.5 -13q-33 0 -79.5 20t-82.5 55zM1176 252q0 32 12 72q32 111 108 241t146 205q48 55 96.5 73.5t110.5 18.5q44 0 94 -12v-502h96q19 -51 19 -102q0 -53 -20 -83t-52 -30h-43v-82q0 -65 -119 -65q-42 0 -94 12v135h-313q-41 44 -41 119zM1376 332h162l12 284 q-53 -34 -102.5 -119t-71.5 -165z" />
<glyph unicode="&#xbd;" horiz-adv-x="1863" d="M53 690q0 59 15.5 87t58.5 28h145v399l-186 -33q-27 45 -27 107q0 75 70 104q70 27 166.5 49.5t142.5 22.5t66 -8v-641h153q11 -68 11 -98q0 -64 -14.5 -89.5t-51.5 -25.5h-539q-10 54 -10 98zM565 55l541 1344q11 55 78 55q85 0 155 -76l-544 -1355q-5 -17 -22.5 -30 t-45.5 -13q-33 0 -79.5 20t-82.5 55zM1176 70q0 73 30 108q59 75 160 176q50 51 74 78t44.5 62t20.5 63q0 35 -21 54.5t-75 19.5q-75 0 -180 -62q-37 79 -37 136q0 48 54.5 85t129 54.5t148.5 17.5q145 0 204.5 -53t59.5 -160q0 -51 -17 -101.5t-53 -102t-62 -82.5t-73 -82 q-35 -38 -59 -68h272q12 -61 12 -98q0 -115 -71 -115h-545q-16 36 -16 70z" />
<glyph unicode="&#xbe;" horiz-adv-x="1892" d="M53 702q0 75 49 121q88 -45 181 -45q143 0 143 82q0 65 -90 74q-29 4 -119 4q-6 8 -16.5 47t-10.5 57q0 66 66 66q28 0 78 -4q47 39 47 84q0 65 -94 65q-99 0 -181 -53q-43 49 -43 115q0 44 23 67q83 72 305 72q246 0 246 -182q0 -115 -98 -213q59 -29 91 -77.5 t32 -104.5q0 -79 -29 -139t-80 -96t-115 -53.5t-139 -17.5q-146 0 -211 45q-35 22 -35 86zM559 55l541 1344q15 55 78 55q84 0 157 -76l-547 -1355q-13 -43 -65 -43q-35 0 -81.5 20t-82.5 55zM1169 252q0 28 13 72q32 111 108 241t146 205q48 55 96 73.5t110 18.5 q45 0 95 -12v-502h96q18 -49 18 -102t-19.5 -83t-51.5 -30h-43v-82q0 -65 -119 -65q-42 0 -92 12v135h-316q-41 44 -41 119zM1370 332h164l12 284q-54 -34 -103.5 -119t-72.5 -165z" />
<glyph unicode="&#xbf;" horiz-adv-x="638" d="M29 -121q0 66 10.5 121.5t34 104t41 77t51.5 74.5q50 68 76 115q12 24 12 51q0 28 -12 78q-11 37 -11 57q1 3 3.5 9t3.5 9q24 27 135 27q51 0 71 -4q39 -76 39 -166q0 -64 -26 -115q-30 -61 -95 -161q-33 -54 -46 -77t-26.5 -62t-13.5 -76q0 -56 30 -84.5t100 -28.5 q42 0 77 11t49 21l15 11q37 -93 37 -182q0 -41 -86 -65.5t-185 -24.5q-143 0 -213.5 77t-70.5 203zM197 891q0 62 39 103.5t106 41.5q81 0 113 -36t32 -109q0 -61 -39.5 -104.5t-105.5 -43.5q-79 0 -112 38.5t-33 109.5z" />
<glyph unicode="&#xc0;" horiz-adv-x="894" d="M4 4l342 1391q8 43 92 43q70 0 109 -8l342 -1393q5 -22 -16 -31.5t-87 -9.5q-72 0 -131 4l-67 328h-277l-59 -289q-5 -25 -23 -34t-82 -9q-72 0 -143 8zM283 1714q10 62 39 114t65 52q19 0 118 -87.5t150 -154.5q-1 -5 -3.5 -13.5t-10.5 -30t-17.5 -38t-24.5 -30 t-32 -13.5q-20 2 -134 80.5t-150 120.5zM354 532h191l-41 193q-30 146 -53 387q-27 -249 -56 -387z" />
<glyph unicode="&#xc1;" horiz-adv-x="894" d="M4 4l342 1391q8 43 92 43q70 0 109 -8l342 -1393q5 -22 -16 -31.5t-87 -9.5q-72 0 -131 4l-67 328h-277l-59 -289q-5 -25 -23 -34t-82 -9q-72 0 -143 8zM283 1659q49 68 148 155t120 87q36 0 65 -52.5t39 -115.5q-36 -40 -150.5 -118.5t-133.5 -80.5q-26 0 -48 31t-31 63 zM354 532h191l-41 193q-30 146 -53 387q-27 -249 -56 -387z" />
<glyph unicode="&#xc2;" horiz-adv-x="894" d="M4 4l342 1391q8 43 92 43q70 0 109 -8l342 -1393q5 -22 -16 -31.5t-87 -9.5q-72 0 -131 4l-67 328h-277l-59 -289q-5 -25 -23 -34t-82 -9q-72 0 -143 8zM174 1597l240 275q21 6 45 6q37 0 63 -29q8 -8 21.5 -22.5t48.5 -52.5t61.5 -70t48 -65t21.5 -48q0 -55 -158 -55 q-67 63 -108 141q-9 -16 -23.5 -39t-48.5 -61.5t-55 -38.5q-108 0 -156 59zM354 532h191l-41 193q-30 146 -53 387q-27 -249 -56 -387z" />
<glyph unicode="&#xc3;" horiz-adv-x="894" d="M4 4l342 1391q8 43 92 43q70 0 109 -8l342 -1393q5 -22 -16 -31.5t-87 -9.5q-72 0 -131 4l-67 328h-277l-59 -289q-5 -25 -23 -34t-82 -9q-72 0 -143 8zM137 1661q52 84 124 127t134 43q28 0 51 -13.5t36 -30.5t34.5 -30.5t46.5 -13.5q30 0 51 10t29.5 21.5t19.5 21.5 t23 10q19 0 37.5 -32t27.5 -64l9 -31q-5 -6 -13 -16.5t-34.5 -36.5t-53.5 -45.5t-66 -36t-75 -16.5q-34 0 -57 13.5t-33 29.5t-28 29.5t-44 13.5q-27 0 -48 -16.5t-35.5 -33t-26.5 -16.5q-28 0 -55 28t-41 56zM354 532h191l-41 193q-30 146 -53 387q-27 -249 -56 -387z" />
<glyph unicode="&#xc4;" horiz-adv-x="894" d="M4 4l342 1391q8 43 92 43q70 0 109 -8l342 -1393q5 -22 -16 -31.5t-87 -9.5q-72 0 -131 4l-67 328h-277l-59 -289q-5 -25 -23 -34t-82 -9q-72 0 -143 8zM207 1692q0 71 29 111t88 40t81.5 -31t22.5 -110q0 -80 -30.5 -123t-88.5 -43q-51 0 -76.5 35t-25.5 121zM354 532 h191l-41 193q-30 146 -53 387q-27 -249 -56 -387zM469 1692q0 70 30.5 110.5t90.5 40.5q58 0 79 -31t21 -110q0 -80 -29 -123t-86 -43q-53 0 -79.5 35t-26.5 121z" />
<glyph unicode="&#xc5;" horiz-adv-x="894" d="M4 4l342 1391q8 43 92 43q70 0 109 -8l342 -1393q5 -22 -16 -31.5t-87 -9.5q-72 0 -131 4l-67 328h-277l-59 -289q-5 -25 -23 -34t-82 -9q-72 0 -143 8zM236 1706q0 215 219 215q110 0 158.5 -46t48.5 -165q0 -217 -220 -217q-108 0 -157 46.5t-49 166.5zM354 532h191 l-41 193q-30 146 -53 387q-27 -249 -56 -387zM391 1706q0 -66 55 -66q64 0 64 68q0 66 -53 66q-66 0 -66 -68z" />
<glyph unicode="&#xc6;" horiz-adv-x="1193" d="M33 4l518 1391q13 39 74 39h549q0 -142 -5.5 -172.5t-35.5 -30.5h-265v-350h250q0 -138 -5.5 -173.5t-33.5 -35.5h-211v-469h291q0 -146 -5.5 -174.5t-35.5 -28.5h-477v328h-262l-98 -289q-8 -24 -28.5 -33.5t-76.5 -9.5q-72 0 -143 8zM446 532h195v662 q-58 -261 -131 -475z" />
<glyph unicode="&#xc7;" horiz-adv-x="665" d="M41 670q0 784 410 784q62 0 103 -9.5t59.5 -28.5t25 -37.5t6.5 -45.5q0 -65 -33 -137q-49 35 -106 35q-38 0 -68.5 -13t-61 -49.5t-50.5 -95t-32.5 -157t-12.5 -228.5q0 -179 17 -278t50.5 -138t93.5 -39q100 0 160 31q31 -64 31 -133q0 -63 -51.5 -101.5t-145.5 -47.5 l-18 -99h33q44 0 74 -36.5t30 -108.5q0 -80 -49.5 -135.5t-134.5 -55.5q-30 0 -60.5 7.5t-45.5 15.5l-15 8q19 91 33 105q5 6 18 -0.5t34 -16.5t40 -10q59 0 59 65q0 66 -55 66q-27 0 -49.5 -3t-31.5 -6l-9 -3l35 209q-100 11 -159 71t-91.5 209t-32.5 406z" />
<glyph unicode="&#xc8;" horiz-adv-x="616" d="M61 0v1393q0 5 1.5 11.5t12 18t27.5 11.5h492q0 -142 -5.5 -172.5t-35.5 -30.5h-264v-350h250q0 -138 -5.5 -173.5t-31.5 -35.5h-213v-469h291q0 -146 -5 -174.5t-34 -28.5h-480zM154 1714q8 61 37 113.5t65 52.5q21 0 120 -87t148 -155q-1 -5 -3.5 -13.5t-10.5 -30 t-17 -38t-24 -30t-31 -13.5q-21 2 -135.5 81t-148.5 120z" />
<glyph unicode="&#xc9;" horiz-adv-x="616" d="M61 0v1393q0 5 1.5 11.5t12 18t27.5 11.5h492q0 -142 -5.5 -172.5t-35.5 -30.5h-264v-350h250q0 -138 -5.5 -173.5t-31.5 -35.5h-213v-469h291q0 -146 -5 -174.5t-34 -28.5h-480zM154 1659q49 68 148 155t120 87q34 0 63 -52.5t39 -115.5q-36 -41 -150 -119t-134 -80 q-26 0 -47.5 31t-30.5 63z" />
<glyph unicode="&#xca;" horiz-adv-x="616" d="M45 1597l240 275q21 6 43 6q37 0 63 -29q8 -8 21.5 -22.5t48.5 -52.5t61.5 -70t48 -65t21.5 -48q0 -55 -156 -55q-69 63 -110 141q-9 -16 -23 -39t-48 -61.5t-56 -38.5q-106 0 -154 59zM61 0v1393q0 5 1.5 11.5t12 18t27.5 11.5h492q0 -142 -5.5 -172.5t-35.5 -30.5h-264 v-350h250q0 -138 -5.5 -173.5t-31.5 -35.5h-213v-469h291q0 -146 -5 -174.5t-34 -28.5h-480z" />
<glyph unicode="&#xcb;" horiz-adv-x="616" d="M61 0v1393q0 5 1.5 11.5t12 18t27.5 11.5h492q0 -142 -5.5 -172.5t-35.5 -30.5h-264v-350h250q0 -138 -5.5 -173.5t-31.5 -35.5h-213v-469h291q0 -146 -5 -174.5t-34 -28.5h-480zM76 1692q0 70 29.5 110.5t89.5 40.5q58 0 80 -31t22 -110q0 -80 -30 -123t-87 -43 q-51 0 -77.5 35t-26.5 121zM340 1692q0 70 30.5 110.5t88.5 40.5q59 0 80.5 -31t21.5 -110q0 -80 -30 -123t-87 -43q-51 0 -77.5 35t-26.5 121z" />
<glyph unicode="&#xcc;" horiz-adv-x="356" d="M12 1714q10 62 39.5 114t65.5 52q19 0 118 -87.5t150 -154.5q-1 -5 -3.5 -13.5t-10.5 -30t-17.5 -38t-24.5 -30t-32 -13.5q-20 2 -134.5 80.5t-150.5 120.5zM61 0v1333q0 75 30.5 88t201.5 13v-1393q0 -31 -30 -36t-202 -5z" />
<glyph unicode="&#xcd;" horiz-adv-x="356" d="M12 1659q49 68 148.5 155t120.5 87q36 0 65 -52.5t39 -115.5q-36 -40 -151 -118.5t-134 -80.5q-26 0 -48 31t-31 63zM61 0v1333q0 75 30.5 88t201.5 13v-1393q0 -31 -30 -36t-202 -5z" />
<glyph unicode="&#xce;" horiz-adv-x="356" d="M-96 1597l239 275q21 6 45 6q38 0 64 -29q8 -8 21.5 -22.5t48.5 -52.5t61.5 -70t48 -65t21.5 -48q0 -55 -158 -55q-68 63 -109 141q-9 -16 -23.5 -39t-48.5 -61.5t-55 -38.5q-107 0 -155 59zM61 0v1333q0 75 30.5 88t201.5 13v-1393q0 -31 -30 -36t-202 -5z" />
<glyph unicode="&#xcf;" horiz-adv-x="356" d="M-63 1692q0 151 116 151q59 0 82 -31t23 -110q0 -80 -30.5 -123t-88.5 -43q-51 0 -77 35t-25 121zM61 0v1333q0 75 30.5 88t201.5 13v-1393q0 -31 -30 -36t-202 -5zM199 1692q0 70 30 110.5t90 40.5q58 0 79.5 -31t21.5 -110q0 -80 -29 -123t-86 -43q-53 0 -79.5 35 t-26.5 121z" />
<glyph unicode="&#xd0;" horiz-adv-x="739" d="M-8 645q0 117 6.5 157t34.5 40h28v551q0 21 13 31t45 10h196q107 0 178.5 -26.5t124 -95.5t76 -190.5t23.5 -308.5q0 -430 -92 -621.5t-299 -191.5h-265v645h-69zM289 215h43q22 0 38.5 11.5t33.5 49t28 101t18 174t7 262.5q0 134 -8.5 219t-27 126t-39 55t-52.5 14h-41 v-385h104q0 -117 -6 -157t-33 -40h-65v-430z" />
<glyph unicode="&#xd1;" horiz-adv-x="880" d="M61 0v1393q0 22 9.5 31.5t31.5 9.5h181l215 -539q47 -121 120 -434q-26 248 -26 454v478q0 31 29.5 36t197.5 5v-1393q0 -41 -41 -41h-176l-217 549q-57 146 -125 459q29 -264 29 -476v-491q0 -31 -29.5 -36t-198.5 -5zM129 1661q52 84 124 127t134 43q28 0 51 -13.5 t36 -30.5t34.5 -30.5t46.5 -13.5q30 0 51 10t29.5 21.5t19.5 21.5t23 10q19 0 37.5 -32t27.5 -64l9 -31q-5 -6 -13 -16.5t-34.5 -36.5t-53.5 -45.5t-66 -36t-75 -16.5q-34 0 -57 13.5t-33 29.5t-28 29.5t-44 13.5q-27 0 -48 -16.5t-35.5 -33t-26.5 -16.5q-28 0 -55 28 t-41 56z" />
<glyph unicode="&#xd2;" horiz-adv-x="839" d="M41 725q0 208 23.5 349t73.5 224.5t121 119.5t173 36q137 0 214 -62.5t114 -219t37 -439.5q0 -286 -42 -451.5t-124.5 -233.5t-220.5 -68q-70 0 -121 13t-93.5 45.5t-70.5 86.5t-47.5 137.5t-28 196.5t-8.5 266zM254 1714q10 62 39 114t65 52q21 0 120.5 -87t148.5 -155 q-1 -5 -3.5 -13.5t-10.5 -30t-17.5 -38t-24.5 -30t-32 -13.5q-19 2 -134 81t-151 120zM301 674q0 -257 23.5 -358t97.5 -101t99.5 112.5t25.5 397.5q0 290 -21 392t-98 102q-73 0 -100 -119.5t-27 -425.5z" />
<glyph unicode="&#xd3;" horiz-adv-x="839" d="M41 725q0 208 23.5 349t73.5 224.5t121 119.5t173 36q137 0 214 -62.5t114 -219t37 -439.5q0 -286 -42 -451.5t-124.5 -233.5t-220.5 -68q-70 0 -121 13t-93.5 45.5t-70.5 86.5t-47.5 137.5t-28 196.5t-8.5 266zM254 1659q51 67 150 154.5t118 87.5q36 0 65.5 -52.5 t39.5 -115.5q-36 -41 -150.5 -119t-134.5 -80q-26 0 -48 31t-31 63zM301 674q0 -257 23.5 -358t97.5 -101t99.5 112.5t25.5 397.5q0 290 -21 392t-98 102q-73 0 -100 -119.5t-27 -425.5z" />
<glyph unicode="&#xd4;" horiz-adv-x="839" d="M41 725q0 208 23.5 349t73.5 224.5t121 119.5t173 36q137 0 214 -62.5t114 -219t37 -439.5q0 -286 -42 -451.5t-124.5 -233.5t-220.5 -68q-70 0 -121 13t-93.5 45.5t-70.5 86.5t-47.5 137.5t-28 196.5t-8.5 266zM147 1597l238 275q21 6 45 6q38 0 64 -29q8 -8 21.5 -22.5 t48 -52.5t61 -70t48 -65t21.5 -48q0 -55 -155 -55q-70 63 -111 141q-9 -16 -23 -39t-48 -61.5t-56 -38.5q-109 0 -154 59zM301 674q0 -257 23.5 -358t97.5 -101t99.5 112.5t25.5 397.5q0 290 -21 392t-98 102q-73 0 -100 -119.5t-27 -425.5z" />
<glyph unicode="&#xd5;" horiz-adv-x="839" d="M41 725q0 208 23.5 349t73.5 224.5t121 119.5t173 36q137 0 214 -62.5t114 -219t37 -439.5q0 -286 -42 -451.5t-124.5 -233.5t-220.5 -68q-70 0 -121 13t-93.5 45.5t-70.5 86.5t-47.5 137.5t-28 196.5t-8.5 266zM109 1661q52 84 124 127t134 43q28 0 51 -13.5t36 -30.5 t34.5 -30.5t46.5 -13.5q30 0 51 10t29.5 21.5t19 21.5t22.5 10q19 0 37.5 -32t27.5 -64l9 -31q-5 -6 -13 -16.5t-34.5 -36.5t-53.5 -45.5t-66 -36t-75 -16.5q-34 0 -57 13.5t-32.5 29.5t-27.5 29.5t-44 13.5q-27 0 -48 -16.5t-36 -33t-27 -16.5q-28 0 -55 28t-40 56z M301 674q0 -257 23.5 -358t97.5 -101t99.5 112.5t25.5 397.5q0 290 -21 392t-98 102q-73 0 -100 -119.5t-27 -425.5z" />
<glyph unicode="&#xd6;" horiz-adv-x="839" d="M41 725q0 208 23.5 349t73.5 224.5t121 119.5t173 36q137 0 214 -62.5t114 -219t37 -439.5q0 -286 -42 -451.5t-124.5 -233.5t-220.5 -68q-70 0 -121 13t-93.5 45.5t-70.5 86.5t-47.5 137.5t-28 196.5t-8.5 266zM178 1692q0 70 29.5 110.5t87.5 40.5q59 0 81.5 -31 t22.5 -110q0 -80 -29.5 -123t-86.5 -43q-51 0 -78 35t-27 121zM301 674q0 -257 23.5 -358t97.5 -101t99.5 112.5t25.5 397.5q0 290 -21 392t-98 102q-73 0 -100 -119.5t-27 -425.5zM442 1692q0 70 29.5 110.5t89.5 40.5q59 0 81 -31t22 -110q0 -80 -30 -123t-87 -43 q-53 0 -79 34.5t-26 121.5z" />
<glyph unicode="&#xd7;" d="M109 762q38 38 52.5 52t37 34.5t34.5 26.5t23 6q9 0 18 -9l439 -479q-36 -36 -52.5 -52t-38 -35t-34 -25.5t-23.5 -6.5q-12 0 -18 9z" />
<glyph unicode="&#xd8;" horiz-adv-x="860" d="M-6 37q-5 18 90 244q-33 156 -33 444q0 276 42.5 437t124.5 226.5t218 65.5q172 0 252 -98q31 84 47 117q15 -2 37 -6t61.5 -21t43.5 -41q5 -35 -93 -309q23 -138 23 -363q0 -286 -42 -451.5t-124.5 -233.5t-220.5 -68q-173 0 -248 92q-24 -64 -43 -103q-39 -2 -84 18.5 t-51 49.5zM311 551l203 625q-26 45 -80 45q-70 0 -96.5 -121t-26.5 -426v-123zM354 240q19 -25 58 -25q28 0 46.5 7.5t39 36.5t32 82t19.5 149.5t8 234.5v129q-42 -128 -116.5 -352.5t-86.5 -261.5z" />
<glyph unicode="&#xd9;" horiz-adv-x="843" d="M61 393v998q0 32 29.5 37.5t206.5 5.5v-1049q0 -106 26.5 -151.5t104.5 -45.5q73 0 121 25v1178q0 32 29 37.5t202 5.5v-1377q-44 -29 -138.5 -53t-213.5 -24q-94 0 -161.5 22t-107 57t-62 91.5t-29.5 111.5t-7 131zM256 1714q10 62 39 114t65 52q21 0 120.5 -87 t148.5 -155q-1 -5 -3.5 -13.5t-10.5 -30t-17.5 -38t-24.5 -30t-32 -13.5q-19 2 -134 81t-151 120z" />
<glyph unicode="&#xda;" horiz-adv-x="843" d="M61 393v998q0 32 29.5 37.5t206.5 5.5v-1049q0 -106 26.5 -151.5t104.5 -45.5q73 0 121 25v1178q0 32 29 37.5t202 5.5v-1377q-44 -29 -138.5 -53t-213.5 -24q-94 0 -161.5 22t-107 57t-62 91.5t-29.5 111.5t-7 131zM256 1659q51 68 150.5 155t119.5 87q34 0 63.5 -52.5 t39.5 -115.5q-36 -41 -150.5 -119t-134.5 -80q-26 0 -48 31t-31 63z" />
<glyph unicode="&#xdb;" horiz-adv-x="843" d="M61 393v998q0 32 29.5 37.5t206.5 5.5v-1049q0 -106 26.5 -151.5t104.5 -45.5q73 0 121 25v1178q0 32 29 37.5t202 5.5v-1377q-44 -29 -138.5 -53t-213.5 -24q-94 0 -161.5 22t-107 57t-62 91.5t-29.5 111.5t-7 131zM150 1597l239 275q18 6 43 6q38 0 64 -29 q8 -8 21.5 -22.5t48 -52.5t61 -70t48 -65t21.5 -48q0 -55 -155 -55q-70 63 -111 141q-9 -16 -23 -39t-48 -61.5t-56 -38.5q-108 0 -153 59z" />
<glyph unicode="&#xdc;" horiz-adv-x="843" d="M61 393v998q0 32 29.5 37.5t206.5 5.5v-1049q0 -106 26.5 -151.5t104.5 -45.5q73 0 121 25v1178q0 32 29 37.5t202 5.5v-1377q-44 -29 -138.5 -53t-213.5 -24q-94 0 -161.5 22t-107 57t-62 91.5t-29.5 111.5t-7 131zM180 1692q0 70 29.5 110.5t89.5 40.5q58 0 80 -31 t22 -110q0 -80 -29.5 -123t-86.5 -43q-51 0 -78 35t-27 121zM444 1692q0 70 30.5 110.5t88.5 40.5q59 0 81 -31t22 -110q0 -80 -30 -123t-87 -43q-53 0 -79 34.5t-26 121.5z" />
<glyph unicode="&#xdd;" horiz-adv-x="753" d="M12 1399q-6 20 5 25q19 10 193 10h62l60 -269q16 -70 34 -194.5t25 -200.5q6 71 25.5 197.5t36.5 199.5l49 226q9 31 39.5 36t203.5 5l-249 -832v-561q0 -24 -9 -30q-18 -11 -151 -11h-68v588zM211 1659q49 68 148 155t120 87q36 0 65.5 -52.5t39.5 -115.5 q-36 -40 -151 -118.5t-134 -80.5q-26 0 -48 31t-31 63z" />
<glyph unicode="&#xde;" horiz-adv-x="714" d="M61 0v1378q0 36 29 46t127 10h72v-267h6q81 0 141 -12t110.5 -40.5t82 -76.5t48.5 -121t17 -172q0 -107 -22.5 -189t-58.5 -132t-88 -81.5t-105 -43.5t-115 -12h-16v-246q0 -30 -31.5 -35.5t-196.5 -5.5zM289 504l6 -2q6 -2 16 -4t21 -2q36 0 57.5 21t35 83.5t13.5 173.5 q0 100 -21.5 148.5t-70.5 48.5q-9 0 -18 -0.5t-15.5 -1.5t-12 -2t-8.5 -1l-3 -1v-461z" />
<glyph unicode="&#xdf;" horiz-adv-x="937" d="M53 8q23 54 23 148q0 29 -2 43v927q0 157 90 237.5t250 80.5q214 0 319 -83.5t105 -215.5q0 -29 -7 -54.5t-14 -41t-25 -35.5t-25.5 -27t-29.5 -26q-24 -19 -37.5 -32.5t-25.5 -36.5t-12 -50q0 -21 14.5 -48.5t28.5 -45.5t47 -58q40 -48 63 -79.5t54.5 -85t47 -112.5 t15.5 -124q0 -138 -80.5 -222.5t-222.5 -84.5q-121 0 -184.5 29t-63.5 69q0 54 14.5 86.5t40.5 62.5q6 -5 17 -12.5t45.5 -20t70.5 -12.5q105 0 105 105q0 40 -20 86.5t-40.5 76t-62.5 83.5q-35 46 -52 70t-42 65.5t-36 80t-11 78.5q0 37 9 68t28 57.5t33 41t40 38.5 q24 22 37 35t24 34t11 42q0 41 -43.5 64.5t-122.5 23.5q-67 0 -92 -39t-25 -129q0 -10 1 -31t1 -33v-872q0 -84 -26 -116.5t-107 -32.5q-39 0 -70.5 7t-43.5 14z" />
<glyph unicode="&#xe0;" horiz-adv-x="694" d="M41 299q0 101 19.5 170.5t55 104.5t74.5 49t89 14q85 0 131 -31v142q0 42 -19.5 59.5t-66.5 17.5q-131 0 -248 -43q-31 58 -31 131q0 49 29 72q26 21 110 40t195 19q142 0 200 -56t58 -193v-97q0 -501 -10 -653q-111 -65 -295 -65q-52 0 -89.5 5.5t-78 25t-65.5 53 t-41.5 93t-16.5 142.5zM180 1305q10 62 39.5 113.5t65.5 51.5q21 0 120 -86.5t148 -154.5q-1 -5 -3.5 -13.5t-10.5 -30t-17.5 -38t-24.5 -30t-32 -13.5q-19 2 -134 81t-151 120zM281 305q0 -76 14.5 -107.5t52.5 -31.5q41 0 58 20q4 47 4 267q-21 18 -54 18q-38 0 -56.5 -36 t-18.5 -130z" />
<glyph unicode="&#xe1;" horiz-adv-x="694" d="M41 299q0 101 19.5 170.5t55 104.5t74.5 49t89 14q85 0 131 -31v142q0 42 -19.5 59.5t-66.5 17.5q-131 0 -248 -43q-31 58 -31 131q0 49 29 72q26 21 110 40t195 19q142 0 200 -56t58 -193v-97q0 -501 -10 -653q-111 -65 -295 -65q-52 0 -89.5 5.5t-78 25t-65.5 53 t-41.5 93t-16.5 142.5zM180 1249q51 68 150 155t119 87q36 0 65 -52.5t39 -115.5q-36 -41 -150.5 -119t-134.5 -80q-26 0 -48 31t-31 63zM281 305q0 -76 14.5 -107.5t52.5 -31.5q41 0 58 20q4 47 4 267q-21 18 -54 18q-38 0 -56.5 -36t-18.5 -130z" />
<glyph unicode="&#xe2;" horiz-adv-x="694" d="M41 299q0 101 19.5 170.5t55 104.5t74.5 49t89 14q85 0 131 -31v142q0 42 -19.5 59.5t-66.5 17.5q-131 0 -248 -43q-31 58 -31 131q0 49 29 72q26 21 110 40t195 19q142 0 200 -56t58 -193v-97q0 -501 -10 -653q-111 -65 -295 -65q-52 0 -89.5 5.5t-78 25t-65.5 53 t-41.5 93t-16.5 142.5zM72 1188l239 274q21 6 45 6q39 0 64 -28q8 -8 21.5 -22.5t48.5 -52.5t61.5 -70t48 -65t21.5 -48q0 -56 -156 -56q-70 64 -111 142q-9 -16 -23 -39t-48 -62t-56 -39q-106 0 -155 60zM281 305q0 -76 14.5 -107.5t52.5 -31.5q41 0 58 20q4 47 4 267 q-21 18 -54 18q-38 0 -56.5 -36t-18.5 -130z" />
<glyph unicode="&#xe3;" horiz-adv-x="694" d="M35 1251q52 84 124 127t134 43q28 0 51 -13.5t36 -30.5t34.5 -30.5t46.5 -13.5q30 0 51 10t29.5 22t19.5 22t23 10q19 0 37.5 -31.5t26.5 -63.5l9 -32q-5 -6 -13 -16.5t-34.5 -36.5t-53.5 -46t-65.5 -36.5t-74.5 -16.5q-34 0 -57 13.5t-33 29.5t-28 29.5t-44 13.5 q-27 0 -48 -16t-36 -32.5t-27 -16.5q-28 0 -55 28t-40 56zM41 299q0 101 19.5 170.5t55 104.5t74.5 49t89 14q85 0 131 -31v142q0 42 -19.5 59.5t-66.5 17.5q-131 0 -248 -43q-31 58 -31 131q0 49 29 72q26 21 110 40t195 19q142 0 200 -56t58 -193v-97q0 -501 -10 -653 q-111 -65 -295 -65q-52 0 -89.5 5.5t-78 25t-65.5 53t-41.5 93t-16.5 142.5zM281 305q0 -76 14.5 -107.5t52.5 -31.5q41 0 58 20q4 47 4 267q-21 18 -54 18q-38 0 -56.5 -36t-18.5 -130z" />
<glyph unicode="&#xe4;" horiz-adv-x="694" d="M41 299q0 101 19.5 170.5t55 104.5t74.5 49t89 14q85 0 131 -31v142q0 42 -19.5 59.5t-66.5 17.5q-131 0 -248 -43q-31 58 -31 131q0 49 29 72q26 21 110 40t195 19q142 0 200 -56t58 -193v-97q0 -501 -10 -653q-111 -65 -295 -65q-52 0 -89.5 5.5t-78 25t-65.5 53 t-41.5 93t-16.5 142.5zM104 1282q0 70 29.5 111t87.5 41q59 0 82 -31.5t23 -110.5q0 -80 -30.5 -123t-88.5 -43q-50 0 -76.5 35t-26.5 121zM281 305q0 -76 14.5 -107.5t52.5 -31.5q41 0 58 20q4 47 4 267q-21 18 -54 18q-38 0 -56.5 -36t-18.5 -130zM367 1282q0 70 30 111 t90 41q59 0 81 -31.5t22 -110.5q0 -80 -30 -123t-87 -43q-53 0 -79.5 35t-26.5 121z" />
<glyph unicode="&#xe5;" horiz-adv-x="694" d="M41 299q0 101 19.5 170.5t55 104.5t74.5 49t89 14q85 0 131 -31v142q0 42 -19.5 59.5t-66.5 17.5q-131 0 -248 -43q-31 58 -31 131q0 49 29 72q26 21 110 40t195 19q142 0 200 -56t58 -193v-97q0 -501 -10 -653q-111 -65 -295 -65q-52 0 -89.5 5.5t-78 25t-65.5 53 t-41.5 93t-16.5 142.5zM133 1296q0 215 221 215q108 0 156.5 -46t48.5 -165q0 -217 -217 -217q-109 0 -159 46.5t-50 166.5zM281 305q0 -76 14.5 -107.5t52.5 -31.5q41 0 58 20q4 47 4 267q-21 18 -54 18q-38 0 -56.5 -36t-18.5 -130zM289 1296q0 -65 57 -65q62 0 62 67 q0 66 -54 66q-65 0 -65 -68z" />
<glyph unicode="&#xe6;" horiz-adv-x="1099" d="M41 317q0 100 19 173t52 112.5t71.5 57.5t84.5 18q96 0 142 -31v119q0 39 -27.5 58.5t-71.5 19.5q-138 0 -235 -53q-31 50 -31 137q0 17 8 34.5t17 24.5q28 23 111 40t212 17q133 0 174 -75q68 75 215 75q262 0 262 -333q0 -179 -28 -291q-84 -8 -172 -8q-93 0 -187 12 q2 -100 13 -146.5t32.5 -61.5t67.5 -15q125 0 242 57q18 -61 18 -201q0 -26 -88 -50.5t-203 -24.5q-113 0 -172 43q-89 -45 -235 -45q-38 0 -64.5 2t-59.5 9.5t-55 21t-45 38.5t-36.5 60.5t-22 87.5t-8.5 118zM281 326q0 -101 12 -130.5t51 -29.5q51 0 66 20v310 q-22 14 -56 14q-73 0 -73 -184zM659 598q70 -12 115 -12q27 0 39 2q10 31 10 106q0 95 -15 124.5t-56 29.5q-44 0 -65.5 -60t-27.5 -190z" />
<glyph unicode="&#xe7;" horiz-adv-x="598" d="M41 489q0 142 22.5 246t56.5 162.5t85 92.5t97 44t104 10q76 0 122.5 -27.5t46.5 -76.5q0 -62 -20 -121q-64 27 -129 27q-25 0 -44 -6.5t-39.5 -28t-33.5 -58.5t-21.5 -102.5t-8.5 -156.5q0 -180 29 -247t110 -67q71 0 131 29q18 -74 18 -119q0 -50 -62 -80t-161 -30h-10 l-17 -97h33q44 0 74.5 -36.5t30.5 -108.5q0 -80 -50 -135.5t-135 -55.5q-31 0 -62 7.5t-46 15.5l-15 8q19 91 33 105q6 6 19 -0.5t34 -16.5t41 -10q58 0 58 65q0 66 -53 66q-28 0 -51.5 -3t-32.5 -6l-9 -3l37 219q-64 20 -103 72.5t-59 155t-20 267.5z" />
<glyph unicode="&#xe8;" horiz-adv-x="706" d="M41 463q0 144 20 250.5t51.5 169t80 99.5t97.5 49.5t111 12.5q263 0 263 -333q0 -175 -29 -291q-122 -24 -356 -29q6 -103 35 -146.5t100 -43.5q100 0 217 57q18 -61 18 -152q0 -59 -83 -92.5t-208 -33.5q-59 0 -105 12.5t-87 45.5t-67.5 86.5t-42 139t-15.5 199.5z M186 1305q10 62 39.5 113.5t65.5 51.5q21 0 120 -86.5t148 -154.5q-1 -5 -3.5 -13.5t-10.5 -30t-17.5 -38t-24.5 -30t-32 -13.5q-19 2 -134 81t-151 120zM279 569q111 0 153 19q10 31 10 106q0 95 -14.5 124.5t-54.5 29.5q-46 0 -67.5 -67t-26.5 -212z" />
<glyph unicode="&#xe9;" horiz-adv-x="706" d="M41 463q0 144 20 250.5t51.5 169t80 99.5t97.5 49.5t111 12.5q263 0 263 -333q0 -175 -29 -291q-122 -24 -356 -29q6 -103 35 -146.5t100 -43.5q100 0 217 57q18 -61 18 -152q0 -59 -83 -92.5t-208 -33.5q-59 0 -105 12.5t-87 45.5t-67.5 86.5t-42 139t-15.5 199.5z M186 1249q51 67 150.5 154.5t118.5 87.5q36 0 65 -52.5t39 -115.5q-36 -41 -150.5 -119t-134.5 -80q-26 0 -48 31t-31 63zM279 569q111 0 153 19q10 31 10 106q0 95 -14.5 124.5t-54.5 29.5q-46 0 -67.5 -67t-26.5 -212z" />
<glyph unicode="&#xea;" horiz-adv-x="706" d="M41 463q0 144 20 250.5t51.5 169t80 99.5t97.5 49.5t111 12.5q263 0 263 -333q0 -175 -29 -291q-122 -24 -356 -29q6 -103 35 -146.5t100 -43.5q100 0 217 57q18 -61 18 -152q0 -59 -83 -92.5t-208 -33.5q-59 0 -105 12.5t-87 45.5t-67.5 86.5t-42 139t-15.5 199.5z M78 1188l239 274q21 6 45 6q39 0 64 -28q8 -8 21.5 -22.5t48.5 -52.5t61.5 -70t48 -65t21.5 -48q0 -56 -156 -56q-70 64 -111 142q-9 -16 -23 -39t-48 -62t-56 -39q-106 0 -155 60zM279 569q111 0 153 19q10 31 10 106q0 95 -14.5 124.5t-54.5 29.5q-46 0 -67.5 -67 t-26.5 -212z" />
<glyph unicode="&#xeb;" horiz-adv-x="706" d="M41 463q0 144 20 250.5t51.5 169t80 99.5t97.5 49.5t111 12.5q263 0 263 -333q0 -175 -29 -291q-122 -24 -356 -29q6 -103 35 -146.5t100 -43.5q100 0 217 57q18 -61 18 -152q0 -59 -83 -92.5t-208 -33.5q-59 0 -105 12.5t-87 45.5t-67.5 86.5t-42 139t-15.5 199.5z M111 1282q0 70 29 111t87 41q59 0 82 -31.5t23 -110.5q0 -80 -30.5 -123t-88.5 -43q-49 0 -75.5 35t-26.5 121zM279 569q111 0 153 19q10 31 10 106q0 95 -14.5 124.5t-54.5 29.5q-46 0 -67.5 -67t-26.5 -212zM375 1282q0 70 30 111t89 41t80.5 -31t21.5 -111t-30 -123 t-87 -43q-53 0 -79 35t-25 121z" />
<glyph unicode="&#xec;" horiz-adv-x="368" d="M18 1305q10 62 39.5 113.5t65.5 51.5q19 0 118.5 -87t149.5 -154q-1 -5 -3.5 -13.5t-10.5 -30t-17.5 -38t-24.5 -30t-32 -13.5q-20 2 -134.5 80.5t-150.5 120.5zM68 0v924q0 71 40 85.5t191 14.5v-983q0 -31 -29.5 -36t-201.5 -5z" />
<glyph unicode="&#xed;" horiz-adv-x="368" d="M18 1249q49 68 148.5 155t120.5 87q36 0 65 -52.5t39 -115.5q-36 -40 -151 -118.5t-134 -80.5q-26 0 -48 31t-31 63zM68 0v924q0 71 40 85.5t191 14.5v-983q0 -31 -29.5 -36t-201.5 -5z" />
<glyph unicode="&#xee;" horiz-adv-x="368" d="M-90 1188l240 274q21 6 45 6q38 0 63 -28q8 -8 21.5 -22.5t48.5 -52.5t61.5 -70t48 -65t21.5 -48q0 -56 -158 -56q-67 64 -108 142q-9 -16 -23.5 -39t-48.5 -62t-55 -39q-107 0 -156 60zM68 0v924q0 71 40 85.5t191 14.5v-983q0 -31 -29.5 -36t-201.5 -5z" />
<glyph unicode="&#xef;" horiz-adv-x="368" d="M-59 1282q3 152 118 152q59 0 82 -31.5t23 -110.5q0 -80 -30.5 -123t-88.5 -43q-51 0 -77.5 35t-26.5 121zM68 0v924q0 71 40 85.5t191 14.5v-983q0 -31 -29.5 -36t-201.5 -5zM205 1282q0 70 30.5 111t90.5 41q58 0 79 -31.5t21 -110.5q0 -80 -29 -123t-86 -43 q-53 0 -79.5 35t-26.5 121z" />
<glyph unicode="&#xf0;" horiz-adv-x="790" d="M41 528q0 243 84 379.5t219 136.5q80 0 129 -34q-23 89 -63 168l-187 -72q-53 128 -53 164q0 24 20 33l101 38q-38 41 -82 82q28 46 74.5 74.5t93.5 28.5q54 0 82 -35q30 -27 59 -64l121 48q53 -128 53 -164q0 -25 -20 -31l-47 -18q123 -255 123 -670q0 -110 -8 -194.5 t-30 -166t-59.5 -134.5t-99 -85t-145.5 -32q-130 0 -208 50.5t-117.5 171t-39.5 326.5zM274 485q0 -319 125 -319q27 0 46.5 12.5t32 40t20.5 59t12 82.5t5 96t1 113q0 120 -6 219q-42 56 -100 56q-37 0 -64 -31.5t-42.5 -85t-22.5 -114t-7 -128.5z" />
<glyph unicode="&#xf1;" horiz-adv-x="741" d="M59 1251q52 84 124 127t134 43q28 0 51 -13.5t36 -30.5t34.5 -30.5t46.5 -13.5q30 0 51 10t30 22t19.5 22t22.5 10q19 0 37.5 -31.5t27.5 -63.5l9 -32q-5 -6 -13 -16.5t-34.5 -36.5t-53.5 -46t-66 -36.5t-75 -16.5q-34 0 -57 13.5t-32.5 29.5t-27.5 29.5t-44 13.5 q-27 0 -48 -16t-36 -32.5t-27 -16.5q-28 0 -55 28t-41 56zM68 0v977q53 25 148.5 46t168.5 21q161 0 228 -57t67 -207v-739q0 -30 -31 -35.5t-205 -5.5v709q0 84 -12.5 112.5t-54.5 28.5q-43 0 -82 -25v-784q0 -31 -29.5 -36t-197.5 -5z" />
<glyph unicode="&#xf2;" horiz-adv-x="741" d="M41 514q0 530 340 530q115 0 181.5 -43.5t102 -158.5t35.5 -320q0 -289 -82.5 -415.5t-252.5 -126.5q-50 0 -87.5 5.5t-73 20t-60 40t-45.5 65.5t-33 96.5t-18.5 132.5t-6.5 174zM207 1305q10 63 38.5 114t63.5 51q21 0 120.5 -87t148.5 -154q-1 -5 -3.5 -13.5t-10.5 -30 t-17 -38t-24 -30t-31 -13.5q-21 2 -136 81t-149 120zM291 516q0 -154 10.5 -232t25.5 -97t44 -19q14 0 24 5.5t21.5 26.5t18.5 57.5t11.5 102t4.5 156.5q0 149 -7.5 220.5t-23 95.5t-47.5 24q-25 0 -41.5 -22.5t-28.5 -101t-12 -216.5z" />
<glyph unicode="&#xf3;" horiz-adv-x="741" d="M41 514q0 530 340 530q115 0 181.5 -43.5t102 -158.5t35.5 -320q0 -289 -82.5 -415.5t-252.5 -126.5q-50 0 -87.5 5.5t-73 20t-60 40t-45.5 65.5t-33 96.5t-18.5 132.5t-6.5 174zM207 1249q49 68 148 155t120 87q36 0 64.5 -52t38.5 -116q-35 -40 -150 -118.5t-135 -80.5 q-25 0 -46.5 31t-30.5 63zM291 516q0 -154 10.5 -232t25.5 -97t44 -19q14 0 24 5.5t21.5 26.5t18.5 57.5t11.5 102t4.5 156.5q0 149 -7.5 220.5t-23 95.5t-47.5 24q-25 0 -41.5 -22.5t-28.5 -101t-12 -216.5z" />
<glyph unicode="&#xf4;" horiz-adv-x="741" d="M41 514q0 530 340 530q115 0 181.5 -43.5t102 -158.5t35.5 -320q0 -289 -82.5 -415.5t-252.5 -126.5q-50 0 -87.5 5.5t-73 20t-60 40t-45.5 65.5t-33 96.5t-18.5 132.5t-6.5 174zM98 1188l240 274q21 6 45 6q39 0 61 -28q8 -8 21.5 -22.5t48.5 -52.5t61.5 -70t48 -65 t21.5 -48q0 -56 -156 -56q-69 64 -108 142q-9 -16 -23.5 -39t-49 -62t-56.5 -39q-105 0 -154 60zM291 516q0 -154 10.5 -232t25.5 -97t44 -19q14 0 24 5.5t21.5 26.5t18.5 57.5t11.5 102t4.5 156.5q0 149 -7.5 220.5t-23 95.5t-47.5 24q-25 0 -41.5 -22.5t-28.5 -101 t-12 -216.5z" />
<glyph unicode="&#xf5;" horiz-adv-x="741" d="M41 514q0 530 340 530q115 0 181.5 -43.5t102 -158.5t35.5 -320q0 -289 -82.5 -415.5t-252.5 -126.5q-50 0 -87.5 5.5t-73 20t-60 40t-45.5 65.5t-33 96.5t-18.5 132.5t-6.5 174zM61 1251q52 84 123 127t133 43q29 0 52 -13.5t36 -30.5t34.5 -30.5t47.5 -13.5q30 0 51 10 t29.5 22t19.5 22t23 10q19 0 37.5 -31.5t27.5 -63.5l9 -32l-7 -8q-7 -9 -19.5 -22.5t-29 -29.5t-38 -32t-44.5 -29.5t-50.5 -22t-53.5 -8.5q-34 0 -57 13.5t-32.5 29.5t-27.5 29.5t-44 13.5q-22 0 -41 -10t-29 -22.5t-21.5 -22.5t-21.5 -10q-27 0 -54 28t-40 56zM291 516 q0 -154 10.5 -232t25.5 -97t44 -19q14 0 24 5.5t21.5 26.5t18.5 57.5t11.5 102t4.5 156.5q0 149 -7.5 220.5t-23 95.5t-47.5 24q-25 0 -41.5 -22.5t-28.5 -101t-12 -216.5z" />
<glyph unicode="&#xf6;" horiz-adv-x="741" d="M41 514q0 530 340 530q115 0 181.5 -43.5t102 -158.5t35.5 -320q0 -289 -82.5 -415.5t-252.5 -126.5q-50 0 -87.5 5.5t-73 20t-60 40t-45.5 65.5t-33 96.5t-18.5 132.5t-6.5 174zM129 1282q0 70 30 111t89 41t80.5 -31t21.5 -111q0 -166 -117 -166q-51 0 -77.5 35 t-26.5 121zM291 516q0 -154 10.5 -232t25.5 -97t44 -19q14 0 24 5.5t21.5 26.5t18.5 57.5t11.5 102t4.5 156.5q0 149 -7.5 220.5t-23 95.5t-47.5 24q-25 0 -41.5 -22.5t-28.5 -101t-12 -216.5zM393 1282q0 70 30.5 111t88.5 41q59 0 80.5 -31t21.5 -111t-29.5 -123 t-84.5 -43q-53 0 -80 35t-27 121z" />
<glyph unicode="&#xf7;" d="M51 479q0 117 6.5 157t34.5 40h676q0 -117 -6.5 -157t-34.5 -40h-676zM287 248q0 55 32.5 92t90.5 37q69 0 98 -33.5t29 -95.5q0 -53 -34.5 -89t-92.5 -36q-67 0 -95 31.5t-28 93.5zM287 897q0 54 32.5 90.5t90.5 36.5q127 0 127 -127q0 -54 -34.5 -90.5t-92.5 -36.5 q-67 0 -95 32t-28 95z" />
<glyph unicode="&#xf8;" horiz-adv-x="815" d="M6 31q0 21 96 184q-24 111 -24 299q0 530 340 530q153 0 221 -79q40 68 66 104q14 -4 35 -11.5t56 -31t35 -47.5q0 -29 -108 -227q14 -88 14 -230q0 -195 -38.5 -316t-111.5 -173.5t-186 -52.5q-149 0 -215 61q-43 -82 -57 -102q-41 7 -82 34.5t-41 57.5zM328 502 l147 278q-9 41 -24 55.5t-41 14.5q-19 0 -32 -12t-25.5 -45.5t-18.5 -102.5t-6 -174v-14zM342 250q8 -50 23.5 -66t42.5 -16q14 0 24 5.5t21 26.5t18 57.5t11.5 102t4.5 156.5v8q-49 -97 -145 -274z" />
<glyph unicode="&#xf9;" horiz-adv-x="735" d="M59 289v694q0 31 29.5 36t206.5 5v-750q0 -54 15 -77t57 -23q46 0 77 27v782q0 24 10 30q18 11 156 11h62v-967q-55 -32 -136 -54.5t-167 -22.5q-91 0 -152 20t-95.5 62t-48.5 96t-14 131zM203 1305q8 61 37 113t65 52q21 0 120 -86.5t148 -154.5q-1 -5 -3.5 -13.5 t-10.5 -30t-17 -38t-24 -30t-31 -13.5q-21 2 -135.5 81t-148.5 120z" />
<glyph unicode="&#xfa;" horiz-adv-x="735" d="M59 289v694q0 31 29.5 36t206.5 5v-750q0 -54 15 -77t57 -23q46 0 77 27v782q0 24 10 30q18 11 156 11h62v-967q-55 -32 -136 -54.5t-167 -22.5q-91 0 -152 20t-95.5 62t-48.5 96t-14 131zM203 1249q49 68 148 155t120 87q34 0 63 -52.5t39 -115.5q-36 -41 -150 -119 t-134 -80q-25 0 -46.5 31t-30.5 63z" />
<glyph unicode="&#xfb;" horiz-adv-x="735" d="M59 289v694q0 31 29.5 36t206.5 5v-750q0 -54 15 -77t57 -23q46 0 77 27v782q0 24 10 30q18 11 156 11h62v-967q-55 -32 -136 -54.5t-167 -22.5q-91 0 -152 20t-95.5 62t-48.5 96t-14 131zM94 1188l240 274q21 6 43 6q38 0 63 -28q8 -8 21.5 -22.5t48.5 -52.5t61.5 -70 t48 -65t21.5 -48q0 -56 -156 -56q-69 64 -110 142q-9 -16 -23 -39t-48 -62t-56 -39q-105 0 -154 60z" />
<glyph unicode="&#xfc;" horiz-adv-x="735" d="M59 289v694q0 31 29.5 36t206.5 5v-750q0 -54 15 -77t57 -23q46 0 77 27v782q0 24 10 30q18 11 156 11h62v-967q-55 -32 -136 -54.5t-167 -22.5q-91 0 -152 20t-95.5 62t-48.5 96t-14 131zM125 1282q0 70 30 111t89 41q58 0 80 -31.5t22 -110.5q0 -80 -30 -123t-87 -43 q-51 0 -77.5 35t-26.5 121zM389 1282q0 70 30.5 111t88.5 41q59 0 80.5 -31t21.5 -111t-29.5 -123t-86.5 -43q-51 0 -78 35t-27 121z" />
<glyph unicode="&#xfd;" horiz-adv-x="698" d="M-23 -293q0 73 29 123q49 -35 139 -35q85 0 105 172l-225 998q-8 35 0 43q14 14 118 16h105l61 -358q14 -79 26.5 -182t18.5 -166l6 -64q18 232 43 412l41 295q6 47 37.5 55t204.5 8l-229 -1071q-43 -201 -104.5 -274.5t-186.5 -73.5q-106 0 -147.5 27t-41.5 75z M182 1249q51 67 150.5 154.5t118.5 87.5q36 0 65 -52.5t39 -115.5q-36 -41 -150.5 -119t-134.5 -80q-26 0 -48 31t-31 63z" />
<glyph unicode="&#xfe;" horiz-adv-x="747" d="M68 -309v1714q0 26 3 42.5t16 28t24 17t44.5 8.5t58 3.5t81.5 0.5v-467q54 4 76 4q78 0 134.5 -18t102.5 -62t69 -127t23 -206q0 -158 -17 -277.5t-43 -188.5t-63.5 -112t-71.5 -57t-73 -14q-91 0 -137 38v-409q-52 -19 -135 -19q-60 0 -76 19.5t-16 81.5zM295 209 q16 -39 59 -39q15 0 26.5 8t24.5 36t21.5 74.5t14 129.5t5.5 196q0 81 -4.5 128t-17 70.5t-27.5 29.5t-43 6t-59 -31v-608z" />
<glyph unicode="&#xff;" horiz-adv-x="698" d="M-23 -293q0 73 29 123q49 -35 139 -35q85 0 105 172l-225 998q-8 35 0 43q14 14 118 16h105l61 -358q14 -79 26.5 -182t18.5 -166l6 -64q18 232 43 412l41 295q6 47 37.5 55t204.5 8l-229 -1071q-43 -201 -104.5 -274.5t-186.5 -73.5q-106 0 -147.5 27t-41.5 75z M106 1282q0 70 29.5 111t87.5 41q59 0 82 -31.5t23 -110.5q0 -80 -30.5 -123t-88.5 -43q-50 0 -76.5 35t-26.5 121zM371 1282q0 70 29.5 111t88.5 41t81 -31.5t22 -110.5q0 -80 -30 -123t-87 -43q-53 0 -79 35t-25 121z" />
<glyph unicode="&#x152;" horiz-adv-x="1124" d="M31 721q0 272 42 433t124.5 229.5t218.5 68.5q125 0 198 -51q6 33 39 33h451q0 -142 -5.5 -172.5t-35.5 -30.5h-264v-350h250q0 -138 -5.5 -173.5t-33.5 -35.5h-211v-469h291q0 -146 -5.5 -174.5t-35.5 -28.5h-437v47q-77 -63 -213 -63q-84 0 -142 20t-103 68.5 t-71 133.5t-39 210.5t-13 304.5zM291 674q0 -259 23.5 -364t97.5 -105t99.5 117t25.5 403q0 294 -21.5 403t-101.5 109q-69 0 -96 -127.5t-27 -435.5z" />
<glyph unicode="&#x153;" horiz-adv-x="1134" d="M41 514q0 528 340 528q149 0 217 -73q77 75 231 75q129 0 196 -80t67 -253q0 -175 -29 -291q-122 -24 -356 -29q2 -84 13.5 -124.5t32.5 -53t64 -12.5q125 0 242 57q18 -61 18 -201q0 -26 -88.5 -51.5t-202.5 -25.5q-146 0 -215 69q-78 -69 -206 -69q-50 0 -87.5 5.5 t-73 20t-60 40t-45.5 65.5t-33 96.5t-18.5 132.5t-6.5 174zM291 516q0 -154 10.5 -232t25.5 -97t44 -19q14 0 24 5.5t21.5 26.5t18.5 57.5t11.5 102t4.5 156.5q0 149 -7.5 218.5t-22.5 91.5t-48 22q-19 0 -32 -11.5t-25.5 -44.5t-18.5 -102t-6 -174zM707 569q111 0 153 19 q10 31 10 106q0 95 -14.5 124.5t-54.5 29.5q-46 0 -67.5 -67t-26.5 -212z" />
<glyph unicode="&#x178;" horiz-adv-x="753" d="M12 1399q-6 20 5 25q19 10 193 10h62l60 -269q16 -70 34 -194.5t25 -200.5q6 71 25.5 197.5t36.5 199.5l49 226q9 31 39.5 36t203.5 5l-249 -832v-561q0 -24 -9 -30q-18 -11 -151 -11h-68v588zM135 1692q0 71 29 111t88 40t81.5 -31t22.5 -110q0 -80 -30 -123t-88 -43 q-51 0 -77 35t-26 121zM397 1692q0 70 30.5 110.5t90.5 40.5q58 0 79 -31t21 -110q0 -166 -114 -166q-53 0 -80 35t-27 121z" />
<glyph unicode="&#x2c6;" horiz-adv-x="573" d="M12 1188l240 274q21 6 45 6q38 0 63 -28q8 -8 21.5 -22.5t48.5 -52.5t61.5 -70t48 -65t21.5 -48q0 -56 -158 -56q-67 64 -108 142q-9 -16 -23.5 -39t-49 -62t-56.5 -39q-105 0 -154 60z" />
<glyph unicode="&#x2dc;" horiz-adv-x="573" d="M-25 1251q52 84 124 127t134 43q20 0 38 -8t26.5 -15.5t24.5 -23.5q41 -41 79 -41q24 0 43 7.5t26 14t19 19.5q19 23 35 23q19 0 37.5 -31.5t27.5 -63.5l9 -32q-5 -6 -13 -16.5t-34.5 -36.5t-53.5 -46t-66 -36.5t-75 -16.5q-26 0 -45.5 8t-28 16t-20.5 23q-31 39 -67 39 q-40 0 -76 -41q-24 -24 -35 -24q-28 0 -55 28t-41 56z" />
<glyph unicode="&#x2000;" horiz-adv-x="960" />
<glyph unicode="&#x2001;" horiz-adv-x="1921" />
<glyph unicode="&#x2002;" horiz-adv-x="960" />
<glyph unicode="&#x2003;" horiz-adv-x="1921" />
<glyph unicode="&#x2004;" horiz-adv-x="640" />
<glyph unicode="&#x2005;" horiz-adv-x="480" />
<glyph unicode="&#x2006;" horiz-adv-x="320" />
<glyph unicode="&#x2007;" horiz-adv-x="320" />
<glyph unicode="&#x2008;" horiz-adv-x="240" />
<glyph unicode="&#x2009;" horiz-adv-x="384" />
<glyph unicode="&#x200a;" horiz-adv-x="106" />
<glyph unicode="&#x2010;" horiz-adv-x="540" d="M61 479q0 117 6.5 157t34.5 40h377q0 -117 -6.5 -157t-34.5 -40h-377z" />
<glyph unicode="&#x2011;" horiz-adv-x="540" d="M61 479q0 117 6.5 157t34.5 40h377q0 -117 -6.5 -157t-34.5 -40h-377z" />
<glyph unicode="&#x2012;" horiz-adv-x="540" d="M61 479q0 117 6.5 157t34.5 40h377q0 -117 -6.5 -157t-34.5 -40h-377z" />
<glyph unicode="&#x2013;" horiz-adv-x="839" d="M61 479q0 117 6.5 157t34.5 40h676q0 -117 -6.5 -157t-34.5 -40h-676z" />
<glyph unicode="&#x2014;" horiz-adv-x="1433" d="M12 479q0 117 6.5 157t34.5 40h1368q0 -117 -6.5 -157t-34.5 -40h-1368z" />
<glyph unicode="&#x2018;" horiz-adv-x="393" d="M59 1317q0 60 23.5 121t55 103t62.5 68.5t48 26.5q70 0 84 -59q-22 -38 -34 -66.5t-14.5 -41t-7.5 -48.5q58 -35 58 -121q0 -56 -37 -94.5t-92 -38.5q-70 0 -108 39t-38 111z" />
<glyph unicode="&#x2019;" horiz-adv-x="393" d="M59 1505q0 56 37.5 94.5t93.5 38.5q69 0 106.5 -38.5t37.5 -110.5q0 -60 -23 -121t-54.5 -103t-62 -69t-47.5 -27q-71 0 -86 60q23 39 34 66t14 40t8 49q-58 32 -58 121z" />
<glyph unicode="&#x201a;" horiz-adv-x="380" d="M59 98q0 56 37.5 94.5t93.5 38.5q69 0 106.5 -38.5t37.5 -110.5q0 -60 -23 -121t-54.5 -103t-62 -69t-47.5 -27q-71 0 -86 60q23 39 34 66t14 40t8 49q-58 32 -58 121z" />
<glyph unicode="&#x201c;" horiz-adv-x="729" d="M59 1317q0 60 23.5 121t55 103t62.5 68.5t48 26.5q70 0 84 -59q-22 -38 -34 -66.5t-14.5 -41t-7.5 -48.5q58 -35 58 -121q0 -56 -37 -94.5t-92 -38.5q-70 0 -108 39t-38 111zM395 1317q0 60 23 121t54.5 103t62 68.5t47.5 26.5q72 0 86 -59q-22 -38 -34 -66.5t-14.5 -41 t-7.5 -48.5q58 -35 58 -121q0 -56 -37.5 -94.5t-93.5 -38.5q-69 0 -106.5 39t-37.5 111z" />
<glyph unicode="&#x201d;" horiz-adv-x="729" d="M59 1505q0 56 37.5 94.5t93.5 38.5q69 0 106.5 -38.5t37.5 -110.5q0 -60 -23 -121t-54.5 -103t-62 -69t-47.5 -27q-71 0 -86 60q23 39 34 66t14 40t8 49q-58 32 -58 121zM395 1505q0 56 37 94.5t92 38.5q71 0 108.5 -38.5t37.5 -110.5q0 -60 -23.5 -121t-55 -103 t-62.5 -69t-48 -27q-69 0 -84 60q23 39 34 66t14 40t8 49q-58 32 -58 121z" />
<glyph unicode="&#x201e;" horiz-adv-x="718" d="M59 98q0 56 37.5 94.5t93.5 38.5q69 0 106.5 -38.5t37.5 -110.5q0 -60 -23 -121t-54.5 -103t-62 -69t-47.5 -27q-71 0 -86 60q23 39 34 66t14 40t8 49q-58 32 -58 121zM395 98q0 56 37 94.5t92 38.5q71 0 108.5 -38.5t37.5 -110.5q0 -60 -23.5 -121t-55 -103t-62.5 -69 t-48 -27q-69 0 -84 60q23 39 34 66t14 40t8 49q-58 32 -58 121z" />
<glyph unicode="&#x2022;" horiz-adv-x="481" d="M59 586q0 78 50 132t133 54q98 0 139 -47t41 -139q0 -79 -47.5 -131t-132.5 -52q-101 0 -142 45.5t-41 137.5z" />
<glyph unicode="&#x2026;" horiz-adv-x="1148" d="M53 131q0 61 40 104.5t106 43.5q77 0 110 -38.5t33 -109.5q0 -62 -38.5 -103.5t-104.5 -41.5q-81 0 -113.5 36t-32.5 109zM432 131q0 61 39 104.5t104 43.5q79 0 112.5 -38.5t33.5 -109.5q0 -62 -39.5 -103.5t-106.5 -41.5q-80 0 -111.5 36t-31.5 109zM809 131 q0 61 39.5 104.5t105.5 43.5q144 0 144 -148q0 -62 -38.5 -103.5t-105.5 -41.5q-81 0 -113 36t-32 109z" />
<glyph unicode="&#x202f;" horiz-adv-x="384" />
<glyph unicode="&#x2039;" horiz-adv-x="481" d="M12 512q0 40 73 168t145 236l73 108q39 0 73 -29t48 -57l14 -29q0 -46 -54 -145.5t-108 -175.5l-53 -76q9 -11 23.5 -30.5t52 -73t66 -100t52 -98.5t23.5 -83q-2 -5 -6 -13.5t-17 -30.5t-27.5 -39t-37.5 -30.5t-47 -13.5q-12 17 -31.5 45.5t-70 106t-89.5 141.5 t-70.5 128.5t-31.5 90.5z" />
<glyph unicode="&#x203a;" horiz-adv-x="481" d="M41 127q0 48 54.5 144.5t108.5 168.5l54 72q-9 12 -23.5 32.5t-51.5 76.5t-65.5 104.5t-51.5 101.5t-23 82q0 35 33.5 63.5t67.5 39.5l34 12q12 -17 31.5 -46t69.5 -106.5t88.5 -141.5t70 -128.5t31.5 -89.5q0 -42 -72.5 -170t-145.5 -235l-73 -107l-15 5t-32.5 14 t-41.5 24.5t-33 36t-15 47.5z" />
<glyph unicode="&#x205f;" horiz-adv-x="480" />
<glyph unicode="&#x20ac;" d="M20 377q0 108 15.5 148t68.5 40h84v4q0 17 1 49t1 46h-170q0 108 15.5 148t68.5 40h109q73 391 379 391q61 0 104.5 -8.5t65 -22t30.5 -27.5t9 -30q0 -98 -33 -149q-18 12 -52.5 21t-66.5 9q-34 0 -65 -13t-65.5 -56.5t-55.5 -114.5h242q0 -108 -15.5 -148t-68.5 -40 h-187q0 -12 -1 -38.5t-1 -41.5v-19h215q0 -108 -15.5 -148t-68.5 -40h-123q13 -104 45 -139t99 -35q103 0 159 26q29 -60 29 -139q0 -41 -66.5 -74.5t-168.5 -33.5q-79 0 -133 16t-99 58t-71 121t-37 200h-177z" />
<glyph unicode="&#x2122;" horiz-adv-x="970" d="M49 1337v78q0 8 4.5 12.5t9.5 5.5l5 1h360v-78q0 -8 -4.5 -13t-9.5 -5l-4 -1h-115v-538v-1q0 -13 -13.5 -15.5t-88.5 -2.5v557h-144zM481 780v635q1 19 21 19h76l75 -230l27 -96q4 39 22 94l64 213q3 11 6.5 15t11.5 4h86v-635q0 -14 -14 -16.5t-92 -2.5l4 221 q2 49 8.5 109t12 94t4.5 35q-20 -92 -48 -172l-43 -125q-3 -6 -10 -6h-43l-45 131q-23 78 -47 172l-2 -2q25 -124 29 -233v-205q0 -13 -15.5 -16t-87.5 -3z" />
<glyph unicode="&#x25fc;" horiz-adv-x="1024" d="M0 0v1024h1024v-1024h-1024z" />
<glyph unicode="&#xfb03;" horiz-adv-x="1216" d="M10 836q0 134 7.5 161t48.5 27h67v131q0 87 21.5 152t54 101.5t78.5 59t85.5 29t84.5 6.5q113 0 200 -51q93 59 261 59q268 0 268 -129q0 -67 -23 -131q-44 26 -108.5 42t-126.5 16q-91 0 -133.5 -31.5t-42.5 -128.5v-125h106q0 -71 -1 -104.5t-6 -54.5t-12 -25t-22 -4 h-65v-795q0 -5 -1 -11.5t-11.5 -18t-28.5 -11.5h-187v836h-164v-795v-4.5t-2 -9.5t-5.5 -12.5t-11.5 -10t-19 -4.5h-189v836h-123zM360 1024h164v117q0 85 23 159q-50 13 -80 13q-107 0 -107 -127v-162zM920 0v924q0 71 40 85.5t191 14.5v-983q0 -31 -29.5 -36t-201.5 -5z " />
<glyph unicode="&#xfb04;" horiz-adv-x="1239" d="M10 836q0 134 7.5 161t48.5 27h67v131q0 87 21.5 152t54 101.5t78.5 59t85.5 29t84.5 6.5q105 0 198 -49q83 59 209 59q175 0 307 -83l-2 -3h2v-1386q0 -31 -28.5 -36t-198.5 -5v1303q-32 8 -63 8q-56 0 -92.5 -29t-36.5 -108v-150h104q0 -71 -1 -104.5t-6 -54.5t-12 -25 t-22 -4h-63v-795q0 -5 -1 -11.5t-11.5 -18t-28.5 -11.5h-187v836h-164v-795v-4.5t-2 -9.5t-5.5 -12.5t-11.5 -10t-19 -4.5h-189v836h-123zM360 1024h164v117q0 85 23 159q-50 13 -80 13q-107 0 -107 -127v-162z" />
</font>
</defs>
</svg>
